<?xml version="1.0" encoding="UTF-8"?>
<!DOCTYPE svg PUBLIC "-//W3C//DTD SVG 1.1//EN" "http://www.w3.org/Graphics/SVG/1.1/DTD/svg11.dtd">
<!-- Creator: CorelDRAW -->
<svg xmlns="http://www.w3.org/2000/svg" xml:space="preserve" width="206px" height="206px" version="1.1" style="shape-rendering:geometricPrecision; text-rendering:geometricPrecision; image-rendering:optimizeQuality; fill-rule:evenodd; clip-rule:evenodd"
viewBox="0 0 206 206"
 xmlns:xlink="http://www.w3.org/1999/xlink"
 xmlns:xodm="http://www.corel.com/coreldraw/odm/2003">
 <defs>
  <style type="text/css">
   <![CDATA[
    .fil0 {fill:#373435;fill-rule:nonzero}
   ]]>
  </style>
 </defs>
 <g id="Layer_x0020_1">
  <metadata id="CorelCorpID_0Corel-Layer"/>
  <path class="fil0" d="M119.97 144.02l3.07 -14.19c0.16,-0.74 0.52,-1.37 1.02,-1.86l34.08 -34.09c3.66,-3.66 9.68,-3.66 13.34,0 0.32,0.34 3.09,3.13 3.13,3.13 3.67,3.67 3.67,9.65 0,13.32 0,0.04 -24.95,24.97 -34.09,34.1 -0.56,0.57 -1.25,0.91 -1.98,1.04l-14.13 3.06c-2.02,0.44 -4.02,-0.85 -4.45,-2.87 -0.13,-0.56 -0.11,-1.12 0.01,-1.64zm10.16 -11.53l-1.62 7.48 7.49 -1.61 24.52 -24.53 -5.86 -5.86 -24.53 24.52zm33.32 -33.31l-3.49 3.49 5.86 5.86 3.49 -3.49c0.76,-0.74 0.75,-1.98 0,-2.73l-3.14 -3.13c-0.74,-0.74 -1.98,-0.74 -2.72,0zm-75.15 -56c16.89,0 30.63,13.74 30.63,30.63 0,9.55 -4.43,18.49 -11.98,24.29 7.29,3.06 13.32,7.1 18.99,12.63 1.97,1.92 2.01,5.08 0.09,7.05 -1.92,1.98 -5.07,2.02 -7.05,0.1 -8.32,-8.13 -18.76,-13.41 -30.55,-13.45l-0.22 0c-26.05,0.06 -43.48,24.6 -49.56,47.55 -0.1,0.49 0.12,0.84 0.64,0.84l98.03 0c2.76,0 5,2.24 5,5 0,2.76 -2.24,5 -5,5l-98.03 0c-6.96,0 -12.09,-6.63 -10.29,-13.38 5.69,-21.45 19.4,-42.76 40.65,-51.35 -7.5,-5.77 -11.97,-14.75 -11.97,-24.28 0,-16.89 13.74,-30.63 30.62,-30.63zm0 10c-11.41,0 -20.62,9.21 -20.62,20.63 0,11.36 9.16,20.57 20.53,20.62l0.22 0c11.34,-0.06 20.5,-9.28 20.5,-20.62 0,-11.42 -9.21,-20.63 -20.63,-20.63z"/>
 </g>
</svg>
