<?xml version="1.0" encoding="UTF-8"?>
<!DOCTYPE svg PUBLIC "-//W3C//DTD SVG 1.1//EN" "http://www.w3.org/Graphics/SVG/1.1/DTD/svg11.dtd">
<!-- Creator: CorelDRAW -->
<svg xmlns="http://www.w3.org/2000/svg" xml:space="preserve" width="206px" height="206px" version="1.1" style="shape-rendering:geometricPrecision; text-rendering:geometricPrecision; image-rendering:optimizeQuality; fill-rule:evenodd; clip-rule:evenodd"
viewBox="0 0 206 206"
 xmlns:xlink="http://www.w3.org/1999/xlink"
 xmlns:xodm="http://www.corel.com/coreldraw/odm/2003">
 <defs>
  <style type="text/css">
   <![CDATA[
    .fil0 {fill:#373435;fill-rule:nonzero}
   ]]>
  </style>
 </defs>
 <g id="Layer_x0020_1">
  <metadata id="CorelCorpID_0Corel-Layer"/>
  <path class="fil0" d="M120.12 144.37l3.1 -14.32c0.16,-0.73 0.53,-1.37 1.02,-1.87l34.38 -34.38c3.68,-3.69 9.76,-3.69 13.44,0 0.33,0.35 3.12,3.16 3.17,3.16 3.69,3.7 3.69,9.73 0,13.43 0,0.04 -25.17,25.19 -34.38,34.4 -0.57,0.56 -1.27,0.91 -2,1.04l-14.25 3.09c-2.73,0.59 -5.1,-1.89 -4.48,-4.55zm40.33 -41.7l-5.35 5.34 5.91 5.92 5.35 -5.35 -5.91 -5.91zm-32.65 14.83l-7.12 7.12c-0.57,0.59 -1.09,1.27 -1.49,2.02 -0.41,0.75 -0.72,1.54 -0.89,2.35l-3.1 14.31c-0.29,1.29 -0.28,2.57 -0.02,3.78 0.35,1.61 1.16,3.09 2.31,4.28 1.17,1.19 2.65,2.06 4.31,2.45 1.22,0.29 2.53,0.32 3.86,0.03l14.25 -3.09c0.8,-0.17 1.6,-0.45 2.34,-0.84 0.82,-0.42 1.55,-0.94 2.16,-1.56l1.15 -1.16c0.97,2.7 1.84,5.48 2.6,8.33 0.51,1.93 0.13,3.81 -1.09,5.39 -1.21,1.58 -2.93,2.43 -4.93,2.43l-107.9 0c-2,0 -3.72,-0.85 -4.94,-2.43 -1.21,-1.58 -1.59,-3.46 -1.08,-5.39 8.72,-32.88 32.28,-56.45 59.97,-56.45 14.97,0 28.74,6.9 39.61,18.43zm-39.61 -74.84c15.58,0 28.2,12.63 28.2,28.21 0,15.58 -12.62,28.21 -28.2,28.21 -15.58,0 -28.21,-12.63 -28.21,-28.21 0,-15.58 12.63,-28.21 28.21,-28.21z"/>
 </g>
</svg>
