<?xml version="1.0" encoding="UTF-8"?>
<!DOCTYPE svg PUBLIC "-//W3C//DTD SVG 1.1//EN" "http://www.w3.org/Graphics/SVG/1.1/DTD/svg11.dtd">
<!-- Creator: CorelDRAW -->
<svg xmlns="http://www.w3.org/2000/svg" xml:space="preserve" width="200px" height="200px" version="1.1" style="shape-rendering:geometricPrecision; text-rendering:geometricPrecision; image-rendering:optimizeQuality; fill-rule:evenodd; clip-rule:evenodd"
viewBox="0 0 200 200"
 xmlns:xlink="http://www.w3.org/1999/xlink"
 xmlns:xodm="http://www.corel.com/coreldraw/odm/2003">
 <defs>
  <style type="text/css">
   <![CDATA[
    .fil0 {fill:#373435;fill-rule:nonzero}
   ]]>
  </style>
 </defs>
 <g id="Layer_x0020_1">
  <metadata id="CorelCorpID_0Corel-Layer"/>
  <path class="fil0" d="M95.74 162.59c-9.78,-12.46 -52.35,-12.33 -61.8,0.11 -2.88,3.79 -8.91,1.72 -8.92,-3l-0.02 -107.95c0,-17.25 56.58,-21.2 74.78,-6.94 17.76,-13.91 61.24,-12.53 73.75,3.94 2.52,3.31 1.03,98.71 1.04,110.95 0,4.52 -5.92,7.16 -9.18,2.7 -8.62,-11.77 -52.09,-12.44 -61.57,0.19 -2.15,2.87 -6.16,2.68 -8.08,0zm-0.92 -13l0 -95.98c-11.3,-11.06 -48.49,-11.08 -59.85,-0.02l0 95.99c16.01,-8.39 43.58,-8.53 59.85,0.01zm9.93 -95.98l0 95.98c16.13,-8.47 43.71,-8.47 59.84,-0.01l0 -95.99c-11.32,-11.03 -48.55,-11.03 -59.84,0.02z"/>
 </g>
</svg>
