<?xml version="1.0" encoding="UTF-8"?>
<!DOCTYPE svg PUBLIC "-//W3C//DTD SVG 1.1//EN" "http://www.w3.org/Graphics/SVG/1.1/DTD/svg11.dtd">
<!-- Creator: CorelDRAW -->
<svg xmlns="http://www.w3.org/2000/svg" xml:space="preserve" width="200px" height="200px" version="1.1" style="shape-rendering:geometricPrecision; text-rendering:geometricPrecision; image-rendering:optimizeQuality; fill-rule:evenodd; clip-rule:evenodd"
viewBox="0 0 200 200"
 xmlns:xlink="http://www.w3.org/1999/xlink"
 xmlns:xodm="http://www.corel.com/coreldraw/odm/2003">
 <defs>
  <style type="text/css">
   <![CDATA[
    .fil0 {fill:#373435;fill-rule:nonzero}
   ]]>
  </style>
 </defs>
 <g id="Layer_x0020_1">
  <metadata id="CorelCorpID_0Corel-Layer"/>
  <path class="fil0" d="M43.42 25l12.86 0c4.19,0 7.98,2.41 9.84,6.1 0.7,-0.15 1.42,-0.22 2.16,-0.22l12.86 0c6.32,0 10.99,5.11 10.99,11.34l8.51 -5.18c5.16,-3.15 11.94,-1.51 15.1,3.65l47.97 78.65c3.15,5.16 1.51,11.95 -3.66,15.1l-10.97 6.69c-5.17,3.15 -11.95,1.51 -15.11,-3.65l-41.84 -68.59 0 65.11c0,6.05 -4.95,11 -10.99,11l-12.86 0c-2.21,0 -4.27,-0.66 -6,-1.79 -1.72,1.13 -3.79,1.79 -6,1.79l-12.86 0c-6.06,0 -10.99,-4.94 -10.99,-11l0 -98c0,-6.05 4.95,-11 10.99,-11zm13.86 87.39l-14.85 0 0 10 14.85 0 0 -10zm24.85 0l-14.85 0 0 10 14.85 0 0 -10zm61.82 -6.29l-12.7 7.75 5.19 8.51 12.7 -7.75 -5.19 -8.51zm-108.95 63.9c0,2.76 -2.24,5 -5,5 -2.76,0 -5,-2.24 -5,-5l0 -5c0,-8.24 6.76,-15 15,-15l120 0c8.24,0 15,6.76 15,15l0 5c0,2.76 -2.24,5 -5,5 -2.76,0 -5,-2.24 -5,-5l0 -5c0,-2.77 -2.23,-5 -5,-5l-120 0c-2.77,0 -5,2.23 -5,5l0 5z"/>
 </g>
</svg>
