<?xml version="1.0" encoding="UTF-8"?>
<!DOCTYPE svg PUBLIC "-//W3C//DTD SVG 1.1//EN" "http://www.w3.org/Graphics/SVG/1.1/DTD/svg11.dtd">
<!-- Creator: CorelDRAW -->
<svg xmlns="http://www.w3.org/2000/svg" xml:space="preserve" width="200px" height="200px" version="1.1" style="shape-rendering:geometricPrecision; text-rendering:geometricPrecision; image-rendering:optimizeQuality; fill-rule:evenodd; clip-rule:evenodd"
viewBox="0 0 200 200"
 xmlns:xlink="http://www.w3.org/1999/xlink"
 xmlns:xodm="http://www.corel.com/coreldraw/odm/2003">
 <defs>
  <style type="text/css">
   <![CDATA[
    .fil0 {fill:#373435;fill-rule:nonzero}
   ]]>
  </style>
 </defs>
 <g id="Layer_x0020_1">
  <metadata id="CorelCorpID_0Corel-Layer"/>
  <path class="fil0" d="M171.28 94.91l0 13.12c6.24,5.1 4.23,14.03 -2.79,17.5l-44.44 26.65c-3.77,2.26 -8.26,3.3 -12.39,1.42 -26.7,-11.63 -53,-25.77 -79.67,-37.63 -5.06,-2.28 -7.01,-7.73 -7.01,-12.95 0,-9.43 5.96,-20.57 13.97,-25.6 15.88,-10.33 33.57,-20 49.95,-29.78 4.5,-2.68 9.7,-2.94 14.44,-0.71l65.75 30.9c6.78,3.18 7.94,12.35 2.19,17.08zm-10 23.33l0 -17.21 -37.28 22.36c-5.19,3.14 -9.41,11.22 -9.41,17.24 0,3.77 0.98,5.01 4.34,3l42.35 -25.39zm-51.11 -10.29l-51.75 -24.97c-2.48,-1.19 -5.46,-0.15 -6.66,2.33 -1.19,2.48 -0.15,5.46 2.33,6.66l51.74 24.96c2.48,1.2 5.47,0.16 6.66,-2.32 1.2,-2.48 0.16,-5.47 -2.32,-6.66z"/>
 </g>
</svg>
