<?xml version="1.0" encoding="UTF-8"?>
<!DOCTYPE svg PUBLIC "-//W3C//DTD SVG 1.1//EN" "http://www.w3.org/Graphics/SVG/1.1/DTD/svg11.dtd">
<!-- Creator: CorelDRAW -->
<svg xmlns="http://www.w3.org/2000/svg" xml:space="preserve" width="200px" height="200px" version="1.1" style="shape-rendering:geometricPrecision; text-rendering:geometricPrecision; image-rendering:optimizeQuality; fill-rule:evenodd; clip-rule:evenodd"
viewBox="0 0 200 200"
 xmlns:xlink="http://www.w3.org/1999/xlink"
 xmlns:xodm="http://www.corel.com/coreldraw/odm/2003">
 <defs>
  <style type="text/css">
   <![CDATA[
    .fil0 {fill:#373435;fill-rule:nonzero}
   ]]>
  </style>
 </defs>
 <g id="Layer_x0020_1">
  <metadata id="CorelCorpID_0Corel-Layer"/>
  <path class="fil0" d="M172.25 55.83c-2.1,4.81 -2.99,9.18 -2.79,13.14 0.19,3.77 1.41,7.25 3.54,10.47 0.89,1.49 1.15,3.06 0.41,4.74 -2.09,4.82 -2.99,9.19 -2.79,13.15 0.19,3.76 1.41,7.25 3.55,10.46 1.36,2.07 1.02,4.87 -0.9,6.53l-59.46 51.51c-3.95,3.43 -9.04,4.53 -14.05,3.05l-63.75 -18.87c-12.4,-4.1 -11.64,-21.81 -5.34,-30.65 -8.58,-6.95 -7.1,-24.43 2.35,-31.96l61.45 -53.23c3.95,-3.43 9.03,-4.53 14.05,-3.05l60.56 17.93c2.88,0.88 4.37,4.01 3.17,6.78zm-12.79 11.72l-47.98 41.57c-3.95,3.43 -9.04,4.53 -14.05,3.05l-57.36 -16.98c-3.75,-0.87 -8.07,14.85 -2.23,16.95l63.56 18.81c1.72,0.51 3.37,0.16 4.72,-1.01l56.37 -48.84c-2.07,-4.26 -3.07,-8.82 -3.03,-13.55zm-54.5 34.04l52.57 -45.56 -51.82 -15.34c-1.72,-0.51 -3.37,-0.16 -4.72,1.01l-52.58 45.56 51.83 15.34c1.72,0.51 3.36,0.16 4.72,-1.01zm-6.37 38.93l-57.36 -16.98c-3.75,-0.85 -8.05,14.86 -2.23,16.95l63.57 18.82c1.72,0.51 3.37,0.16 4.72,-1.02l56.36 -48.83c-2.07,-4.27 -3.07,-8.82 -3.02,-13.56l-47.99 41.58c-3.95,3.42 -9.03,4.53 -14.05,3.04z"/>
 </g>
</svg>
