<?xml version="1.0" encoding="UTF-8"?>
<!DOCTYPE svg PUBLIC "-//W3C//DTD SVG 1.1//EN" "http://www.w3.org/Graphics/SVG/1.1/DTD/svg11.dtd">
<!-- Creator: CorelDRAW -->
<svg xmlns="http://www.w3.org/2000/svg" xml:space="preserve" width="200px" height="200px" version="1.1" style="shape-rendering:geometricPrecision; text-rendering:geometricPrecision; image-rendering:optimizeQuality; fill-rule:evenodd; clip-rule:evenodd"
viewBox="0 0 200 200"
 xmlns:xlink="http://www.w3.org/1999/xlink"
 xmlns:xodm="http://www.corel.com/coreldraw/odm/2003">
 <defs>
  <style type="text/css">
   <![CDATA[
    .fil0 {fill:#373435;fill-rule:nonzero}
   ]]>
  </style>
 </defs>
 <g id="Layer_x0020_1">
  <metadata id="CorelCorpID_0Corel-Layer"/>
  <path class="fil0" d="M43.42 25l12.86 0c4.19,0 7.98,2.41 9.84,6.1 0.7,-0.15 1.42,-0.22 2.16,-0.22l12.86 0c6.03,0 10.99,4.96 10.99,11l0 0.34 8.51 -5.18c5.16,-3.15 11.94,-1.51 15.1,3.65l47.97 78.65c3.15,5.16 1.51,11.95 -3.66,15.1l-10.97 6.69c-5.17,3.15 -11.95,1.51 -15.11,-3.65l-41.84 -68.59 0 65.11c0,6.05 -4.95,11 -10.99,11l-12.86 0c-2.21,0 -4.27,-0.66 -6,-1.79 -1.72,1.13 -3.79,1.79 -6,1.79l-12.86 0c-6.06,0 -10.99,-4.94 -10.99,-11l0 -98c0,-6.05 4.95,-11 10.99,-11zm12.86 10l-12.86 0c-0.55,0 -0.99,0.44 -0.99,1l0 76.39 14.85 0 0 -76.39c0,-0.57 -0.43,-1 -1,-1zm11 6.88l0 70.51 14.85 0 0 -70.51c0,-0.57 -0.43,-1 -0.99,-1l-12.86 0c-0.55,0 -1,0.44 -1,1zm0 80.51l0 11.61c0,0.54 0.46,1 1,1l12.86 0c0.55,0 0.99,-0.46 0.99,-1l0 -11.61 -14.85 0zm-10 11.61l0 -11.61 -14.85 0 0 11.61c0,0.54 0.45,1 0.99,1l12.86 0c0.56,0 1,-0.45 1,-1zm48.55 -88.45l-10.98 6.7c-0.23,0.14 -0.39,0.37 -0.45,0.62 -0.06,0.25 -0.03,0.52 0.11,0.75l36.74 60.23 12.7 -7.75 -36.73 -60.21c-0.29,-0.48 -0.92,-0.63 -1.39,-0.34zm49.36 78.98l-6.05 -9.92 -12.7 7.75 6.05 9.92c0.29,0.48 0.92,0.63 1.39,0.34l10.98 -6.7c0.47,-0.29 0.62,-0.91 0.33,-1.39zm-120.19 45.47c0,2.76 -2.24,5 -5,5 -2.76,0 -5,-2.24 -5,-5l0 -5c0,-8.24 6.76,-15 15,-15l120 0c8.24,0 15,6.76 15,15l0 5c0,2.76 -2.24,5 -5,5 -2.76,0 -5,-2.24 -5,-5l0 -5c0,-2.77 -2.23,-5 -5,-5l-120 0c-2.77,0 -5,2.23 -5,5l0 5z"/>
 </g>
</svg>
