<?xml version="1.0" encoding="UTF-8"?>
<!DOCTYPE svg PUBLIC "-//W3C//DTD SVG 1.1//EN" "http://www.w3.org/Graphics/SVG/1.1/DTD/svg11.dtd">
<!-- Creator: CorelDRAW -->
<svg xmlns="http://www.w3.org/2000/svg" xml:space="preserve" width="200px" height="200px" version="1.1" style="shape-rendering:geometricPrecision; text-rendering:geometricPrecision; image-rendering:optimizeQuality; fill-rule:evenodd; clip-rule:evenodd"
viewBox="0 0 200 200"
 xmlns:xlink="http://www.w3.org/1999/xlink"
 xmlns:xodm="http://www.corel.com/coreldraw/odm/2003">
 <defs>
  <style type="text/css">
   <![CDATA[
    .fil0 {fill:#373435;fill-rule:nonzero}
   ]]>
  </style>
 </defs>
 <g id="Layer_x0020_1">
  <metadata id="CorelCorpID_0Corel-Layer"/>
  <path class="fil0" d="M95.99 162.83c-9.67,-12.53 -52.52,-12.46 -62.03,0.06 -2.88,3.79 -8.93,1.72 -8.94,-3.01l-0.02 0 0 -108.27c0,-5.44 10.81,-11.05 17.06,-13.11 16.82,-5.53 43.98,-4.79 57.94,6.15 17.8,-13.95 61.42,-12.57 73.96,3.95 0.69,0.9 1.02,1.96 1.02,3.01l0.02 0 0 108.27c0,4.53 -5.93,7.18 -9.21,2.7 -8.53,-11.65 -51.95,-12.7 -61.83,0.3 -2,2.65 -6.01,2.6 -7.97,-0.05zm8.99 -16.96l0 -86.27c0,-2.75 -2.23,-4.98 -4.98,-4.98 -2.75,0 -4.98,2.23 -4.98,4.98l0 86.27c0,2.75 2.23,4.98 4.98,4.98 2.75,0 4.98,-2.23 4.98,-4.98z"/>
 </g>
</svg>
