<?xml version="1.0" encoding="UTF-8"?>
<!DOCTYPE svg PUBLIC "-//W3C//DTD SVG 1.1//EN" "http://www.w3.org/Graphics/SVG/1.1/DTD/svg11.dtd">
<!-- Creator: CorelDRAW -->
<svg xmlns="http://www.w3.org/2000/svg" xml:space="preserve" width="200px" height="200px" version="1.1" style="shape-rendering:geometricPrecision; text-rendering:geometricPrecision; image-rendering:optimizeQuality; fill-rule:evenodd; clip-rule:evenodd"
viewBox="0 0 200 200"
 xmlns:xlink="http://www.w3.org/1999/xlink"
 xmlns:xodm="http://www.corel.com/coreldraw/odm/2003">
 <defs>
  <style type="text/css">
   <![CDATA[
    .fil0 {fill:#373435;fill-rule:nonzero}
   ]]>
  </style>
 </defs>
 <g id="Layer_x0020_1">
  <metadata id="CorelCorpID_0Corel-Layer"/>
  <path class="fil0" d="M172.25 55.53c-2.09,4.84 -2.98,9.24 -2.78,13.23 0.19,3.79 1.4,7.3 3.54,10.54 0.89,1.5 1.14,3.08 0.41,4.78 -2.1,4.84 -2.99,9.25 -2.79,13.23 0.19,3.79 1.41,7.3 3.54,10.54 1.37,2.07 1.02,4.89 -0.89,6.56l-59.47 51.87c-3.95,3.45 -9.04,4.56 -14.05,3.07l-63.76 -19c-12.4,-4.13 -11.64,-21.95 -5.34,-30.85 -8.58,-7.01 -7.1,-24.6 2.35,-32.18l61.46 -53.61c3.95,-3.44 9.03,-4.56 14.05,-3.06l60.57 18.05c2.87,0.89 4.37,4.04 3.16,6.83zm-12.78 11.8l-47.99 41.86c-3.95,3.44 -9.04,4.56 -14.05,3.06l-57.36 -17.09c-3.75,-0.88 -8.07,14.95 -2.24,17.06l63.57 18.95c1.72,0.51 3.37,0.16 4.72,-1.02l56.37 -49.18c-2.07,-4.29 -3.07,-8.88 -3.02,-13.64zm-22.64 -0.9l10.21 -8.91 -41.29 -12.3c-1.71,-0.52 -3.36,-0.17 -4.72,1.02l-10.2 8.9 41.28 12.31c1.72,0.51 3.36,0.16 4.72,-1.02zm-38.24 74.37l-57.37 -17.1c-3.75,-0.85 -8.05,14.96 -2.22,17.07l63.57 18.95c1.72,0.51 3.37,0.16 4.72,-1.03l56.37 -49.16c-2.07,-4.3 -3.07,-8.89 -3.03,-13.65l-47.98 41.85c-3.96,3.45 -9.04,4.56 -14.06,3.07z"/>
 </g>
</svg>
