<?xml version="1.0" encoding="UTF-8"?>
<!DOCTYPE svg PUBLIC "-//W3C//DTD SVG 1.1//EN" "http://www.w3.org/Graphics/SVG/1.1/DTD/svg11.dtd">
<!-- Creator: CorelDRAW -->
<svg xmlns="http://www.w3.org/2000/svg" xml:space="preserve" width="200px" height="200px" version="1.1" style="shape-rendering:geometricPrecision; text-rendering:geometricPrecision; image-rendering:optimizeQuality; fill-rule:evenodd; clip-rule:evenodd"
viewBox="0 0 200 200"
 xmlns:xlink="http://www.w3.org/1999/xlink"
 xmlns:xodm="http://www.corel.com/coreldraw/odm/2003">
 <defs>
  <style type="text/css">
   <![CDATA[
    .fil0 {fill:#373435}
   ]]>
  </style>
 </defs>
 <g id="Layer_x0020_1">
  <metadata id="CorelCorpID_0Corel-Layer"/>
  <path class="fil0" d="M142.5 172.5c-15.19,0 -27.5,-12.31 -27.5,-27.5 0,-15.19 12.31,-27.5 27.5,-27.5 15.19,0 27.5,12.31 27.5,27.5 0,15.19 -12.31,27.5 -27.5,27.5zm-0.25 -17.29l14.34 -15.29c1.41,-1.51 1.34,-3.88 -0.17,-5.29 -1.5,-1.42 -3.87,-1.35 -5.28,0.16l-11.82 12.61 -5.66 -5.19c-1.52,-1.39 -3.89,-1.28 -5.28,0.24 -1.39,1.52 -1.28,3.88 0.24,5.27l8.34 7.65c1.51,1.42 3.88,1.34 5.29,-0.16zm-42.49 11.64l-63.76 -19c-12.4,-4.13 -11.64,-21.95 -5.34,-30.85 -8.58,-7.01 -7.1,-24.6 2.35,-32.18l61.46 -53.6c3.95,-3.45 9.03,-4.56 14.05,-3.07l60.57 18.05c2.87,0.89 4.37,4.04 3.16,6.83 -2.09,4.85 -2.98,9.24 -2.78,13.23 0.19,3.79 1.4,7.3 3.54,10.54 0.89,1.5 1.14,3.08 0.41,4.78 -2.1,4.85 -2.99,9.25 -2.79,13.23 0.19,3.79 1.41,7.3 3.54,10.54 1.37,2.07 1.02,4.89 -0.89,6.57l-9.64 8.4c-2.65,-2.27 -5.67,-4.13 -8.96,-5.46l8.98 -7.83c-2.07,-4.3 -3.07,-8.89 -3.03,-13.65l-22.21 19.37c-7.33,0.92 -13.91,4.3 -18.89,9.28 -3.93,3.93 -6.86,8.85 -8.37,14.36 -3.7,2.53 -8.16,3.22 -12.57,1.91l-57.37 -17.1c-3.75,-0.85 -8.05,14.96 -2.22,17.07l63.57 18.95c1.72,0.51 3.37,0.16 4.72,-1.03l3.7 -3.22c0.87,3.46 2.3,6.71 4.18,9.63l-1.36 1.18c-3.95,3.45 -9.04,4.57 -14.05,3.07zm59.71 -102.02l-47.99 41.86c-3.95,3.45 -9.04,4.56 -14.05,3.06l-57.36 -17.09c-3.75,-0.88 -8.07,14.95 -2.24,17.06l63.57 18.95c1.72,0.51 3.37,0.16 4.72,-1.02l56.37 -49.17c-2.07,-4.3 -3.07,-8.89 -3.02,-13.65zm-22.64 -0.9l10.21 -8.91 -41.29 -12.3c-1.71,-0.52 -3.36,-0.16 -4.72,1.02l-10.2 8.9 41.28 12.31c1.72,0.51 3.36,0.16 4.72,-1.02z"/>
 </g>
</svg>
