<?xml version="1.0" encoding="UTF-8"?>
<!DOCTYPE svg PUBLIC "-//W3C//DTD SVG 1.1//EN" "http://www.w3.org/Graphics/SVG/1.1/DTD/svg11.dtd">
<!-- Creator: CorelDRAW -->
<svg xmlns="http://www.w3.org/2000/svg" xml:space="preserve" width="200px" height="200px" version="1.1" style="shape-rendering:geometricPrecision; text-rendering:geometricPrecision; image-rendering:optimizeQuality; fill-rule:evenodd; clip-rule:evenodd"
viewBox="0 0 200 200"
 xmlns:xlink="http://www.w3.org/1999/xlink"
 xmlns:xodm="http://www.corel.com/coreldraw/odm/2003">
 <defs>
  <style type="text/css">
   <![CDATA[
    .fil0 {fill:#373435;fill-rule:nonzero}
   ]]>
  </style>
 </defs>
 <g id="Layer_x0020_1">
  <metadata id="CorelCorpID_0Corel-Layer"/>
  <path class="fil0" d="M172.23 50.36c-3.5,8.03 -4.27,16.04 0.75,23.61 0.89,1.49 1.15,3.06 0.41,4.74 -3.49,8.03 -4.26,16.05 0.76,23.61 1.36,2.06 1.02,4.87 -0.9,6.52l-2.87 2.49c-2.08,1.8 -5.23,1.57 -7.03,-0.51 -1.73,-2 -1.58,-4.99 0.29,-6.82 -2.07,-4.27 -3.07,-8.83 -3.03,-13.57l-15.25 13.22c-2.09,1.8 -5.23,1.57 -7.03,-0.51 -1.8,-2.08 -1.58,-5.23 0.5,-7.03l23.64 -20.48c-2.07,-4.26 -3.07,-8.82 -3.03,-13.55l-47.98 41.57c-3.95,3.43 -9.04,4.53 -14.05,3.05l-57.36 -16.98c-3.77,-0.64 -8.05,14.47 -2.23,16.94l63.57 18.82c2.64,0.78 4.15,3.55 3.37,6.19 -0.77,2.65 -3.55,4.16 -6.19,3.38l-57.36 -16.98c-3.8,-0.6 -8.02,14.49 -2.23,16.95l63.57 18.82c2.64,0.77 4.16,3.55 3.38,6.19 -0.78,2.64 -3.55,4.15 -6.19,3.38l-63.75 -18.88c-12.37,-4.08 -11.68,-21.75 -5.34,-30.64 -8.91,-7.22 -6.62,-25.39 2.35,-31.96l61.45 -53.24c3.95,-3.42 9.03,-4.53 14.05,-3.04l60.57 17.93c2.87,0.88 4.36,4.01 3.16,6.78zm-67.29 45.75l52.57 -45.55 -51.82 -15.34c-1.72,-0.51 -3.37,-0.16 -4.72,1.01l-52.58 45.55 51.83 15.35c1.72,0.51 3.37,0.16 4.72,-1.02zm31.8 35.01c0,-2.07 1.68,-3.75 3.75,-3.75 2.07,0 3.75,1.68 3.75,3.75l0 11.62 7.62 0c2.07,0 3.75,1.68 3.75,3.75 0,2.07 -1.68,3.75 -3.75,3.75l-11.37 0c-2.07,0 -3.75,-1.68 -3.75,-3.75l0 -15.37zm5.75 -21.13c17.95,0 32.5,14.56 32.5,32.51 0,17.92 -14.58,32.5 -32.5,32.5 -17.95,0 -32.5,-14.56 -32.5,-32.5 0,-17.93 14.57,-32.51 32.5,-32.51zm0 10.01c-12.45,0 -22.5,10.04 -22.5,22.5 0,12.42 10.07,22.5 22.5,22.5 12.45,0 22.5,-10.05 22.5,-22.5 0,-12.43 -10.07,-22.5 -22.5,-22.5z"/>
 </g>
</svg>
