<?xml version="1.0" encoding="UTF-8"?>
<!DOCTYPE svg PUBLIC "-//W3C//DTD SVG 1.1//EN" "http://www.w3.org/Graphics/SVG/1.1/DTD/svg11.dtd">
<!-- Creator: CorelDRAW -->
<svg xmlns="http://www.w3.org/2000/svg" xml:space="preserve" width="200px" height="200px" version="1.1" style="shape-rendering:geometricPrecision; text-rendering:geometricPrecision; image-rendering:optimizeQuality; fill-rule:evenodd; clip-rule:evenodd"
viewBox="0 0 200 200"
 xmlns:xlink="http://www.w3.org/1999/xlink"
 xmlns:xodm="http://www.corel.com/coreldraw/odm/2003">
 <defs>
  <style type="text/css">
   <![CDATA[
    .fil0 {fill:#373435;fill-rule:nonzero}
   ]]>
  </style>
 </defs>
 <g id="Layer_x0020_1">
  <metadata id="CorelCorpID_0Corel-Layer"/>
  <path class="fil0" d="M150.99 56.07c5.63,2.27 9.43,7.8 9.43,13.93l0 90c0,8.25 -6.76,15 -15,15l-85.84 0c-11.02,0 -20,-8.98 -20,-20l0 -110c0,-11.02 8.98,-20 20,-20l84.9 0c6.38,0 9.4,7.9 4.68,12.17 -5.1,4.62 -4.51,15.56 1.83,18.9zm-13.45 -1.07c-2.62,-6.32 -2.36,-13.96 0.89,-20l-78.85 0c-5.49,0 -10,4.5 -10,10 0,5.52 4.48,10 10,10l77.96 0zm-74.62 25l0 70c0,2.76 2.24,5 5,5 2.76,0 5,-2.24 5,-5l0 -70c0,-2.76 -2.24,-5 -5,-5 -2.76,0 -5,2.24 -5,5z"/>
 </g>
</svg>
