<?xml version="1.0" encoding="UTF-8"?>
<!DOCTYPE svg PUBLIC "-//W3C//DTD SVG 1.1//EN" "http://www.w3.org/Graphics/SVG/1.1/DTD/svg11.dtd">
<!-- Creator: CorelDRAW -->
<svg xmlns="http://www.w3.org/2000/svg" xml:space="preserve" width="200px" height="200px" version="1.1" style="shape-rendering:geometricPrecision; text-rendering:geometricPrecision; image-rendering:optimizeQuality; fill-rule:evenodd; clip-rule:evenodd"
viewBox="0 0 200 200"
 xmlns:xlink="http://www.w3.org/1999/xlink"
 xmlns:xodm="http://www.corel.com/coreldraw/odm/2003">
 <defs>
  <style type="text/css">
   <![CDATA[
    .fil0 {fill:#373435;fill-rule:nonzero}
   ]]>
  </style>
 </defs>
 <g id="Layer_x0020_1">
  <metadata id="CorelCorpID_0Corel-Layer"/>
  <path class="fil0" d="M171.28 80.43l0 13.12c4.93,4.02 4.91,11.66 0,15.7l0 13.26c6.28,5.14 4.18,14.04 -2.78,17.5l-44.45 26.65c-3.77,2.26 -8.26,3.3 -12.39,1.42 -26.7,-11.63 -53,-25.77 -79.67,-37.63 -5.06,-2.29 -7.01,-7.73 -7.01,-12.96 0,-5.81 2.28,-12.02 5.43,-16.88 -3.94,-2.68 -5.43,-7.5 -5.43,-12.07 0,-9.43 5.97,-20.57 13.97,-25.6 15.88,-10.33 33.57,-20 49.95,-29.78 4.5,-2.68 9.7,-2.94 14.44,-0.71l65.76 30.9c6.78,3.18 7.93,12.35 2.18,17.08zm-46.38 56.76c-6.35,3.49 -10.06,11.69 -10.31,17.92 0,3.76 0.98,5.01 4.34,2.99l42.35 -25.39 0 -17.33 -36.38 21.81zm36.38 -33.43l0 -17.2 -37.23 22.32c-5.22,3.12 -9.46,11.23 -9.46,17.27 0,3.77 0.98,5.01 4.34,3l42.35 -25.39zm-51.11 -10.29l-51.74 -24.97c-2.48,-1.19 -5.47,-0.15 -6.66,2.33 -1.2,2.48 -0.16,5.46 2.32,6.66l51.75 24.96c2.48,1.2 5.46,0.16 6.66,-2.32 1.19,-2.48 0.15,-5.47 -2.33,-6.66z"/>
 </g>
</svg>
