<?xml version="1.0" encoding="UTF-8"?>
<!DOCTYPE svg PUBLIC "-//W3C//DTD SVG 1.1//EN" "http://www.w3.org/Graphics/SVG/1.1/DTD/svg11.dtd">
<!-- Creator: CorelDRAW -->
<svg xmlns="http://www.w3.org/2000/svg" xml:space="preserve" width="200px" height="200px" version="1.1" style="shape-rendering:geometricPrecision; text-rendering:geometricPrecision; image-rendering:optimizeQuality; fill-rule:evenodd; clip-rule:evenodd"
viewBox="0 0 200 200"
 xmlns:xlink="http://www.w3.org/1999/xlink"
 xmlns:xodm="http://www.corel.com/coreldraw/odm/2003">
 <defs>
  <style type="text/css">
   <![CDATA[
    .fil0 {fill:#373435;fill-rule:nonzero}
   ]]>
  </style>
 </defs>
 <g id="Layer_x0020_1">
  <metadata id="CorelCorpID_0Corel-Layer"/>
  <path class="fil0" d="M57.79 108.24l22.68 22.71c2.93,2.93 7.68,2.93 10.61,0 2.93,-2.93 2.93,-7.68 0,-10.6l-12.85 -12.85 59.9 0c4.15,0 7.5,-3.36 7.5,-7.5 0,-4.14 -3.35,-7.5 -7.5,-7.5l-59.9 0 12.85 -12.84c2.92,-2.93 2.92,-7.68 0,-10.61 -2.93,-2.93 -7.68,-2.93 -10.61,0l-22.69 22.69c-2.28,2.28 -3.42,5.27 -3.42,8.26 0,2.97 1.14,5.95 3.43,8.24zm42.21 -83.24c-41.42,0 -75,33.58 -75,75 0,41.42 33.58,75 75,75 41.42,0 75,-33.58 75,-75 0,-41.42 -33.58,-75 -75,-75zm-60 75c0,-33.14 26.86,-60 60,-60 33.14,0 60,26.86 60,60 0,33.14 -26.86,60 -60,60 -33.14,0 -60,-26.86 -60,-60z"/>
 </g>
</svg>
