<?xml version="1.0" encoding="UTF-8"?>
<!DOCTYPE svg PUBLIC "-//W3C//DTD SVG 1.1//EN" "http://www.w3.org/Graphics/SVG/1.1/DTD/svg11.dtd">
<!-- Creator: CorelDRAW -->
<svg xmlns="http://www.w3.org/2000/svg" xml:space="preserve" width="206px" height="206px" version="1.1" style="shape-rendering:geometricPrecision; text-rendering:geometricPrecision; image-rendering:optimizeQuality; fill-rule:evenodd; clip-rule:evenodd"
viewBox="0 0 206 206"
 xmlns:xlink="http://www.w3.org/1999/xlink"
 xmlns:xodm="http://www.corel.com/coreldraw/odm/2003">
 <defs>
  <style type="text/css">
   <![CDATA[
    .fil0 {fill:#373435;fill-rule:nonzero}
   ]]>
  </style>
 </defs>
 <g id="Layer_x0020_1">
  <metadata id="CorelCorpID_0Corel-Layer"/>
  <path class="fil0" d="M43 48.65l25 0 0 -11.3c0,-2.76 2.24,-5 5,-5 2.76,0 5,2.24 5,5l0 11.3 50 0 0 -11.3c0,-2.76 2.24,-5 5,-5 2.76,0 5,2.24 5,5l0 11.3 25 0c8.24,0 15,6.75 15,15l0 95c0,8.24 -6.76,15 -15,15l-120 0c-8.24,0 -15,-6.76 -15,-15l0 -95c0,-8.25 6.76,-15 15,-15zm-5 49.3l0 60.7c0,2.77 2.23,5 5,5l120 0c2.77,0 5,-2.23 5,-5l0 -60.7c0,-2.75 -2.25,-5 -5,-5l-120 0c-2.75,0 -5,2.25 -5,5z"/>
 </g>
</svg>
