<?xml version="1.0" encoding="UTF-8"?>
<!DOCTYPE svg PUBLIC "-//W3C//DTD SVG 1.1//EN" "http://www.w3.org/Graphics/SVG/1.1/DTD/svg11.dtd">
<!-- Creator: CorelDRAW -->
<svg xmlns="http://www.w3.org/2000/svg" xml:space="preserve" width="206px" height="206px" version="1.1" style="shape-rendering:geometricPrecision; text-rendering:geometricPrecision; image-rendering:optimizeQuality; fill-rule:evenodd; clip-rule:evenodd"
viewBox="0 0 206 206"
 xmlns:xlink="http://www.w3.org/1999/xlink"
 xmlns:xodm="http://www.corel.com/coreldraw/odm/2003">
 <defs>
  <style type="text/css">
   <![CDATA[
    .fil0 {fill:#373435;fill-rule:nonzero}
   ]]>
  </style>
 </defs>
 <g id="Layer_x0020_1">
  <metadata id="CorelCorpID_0Corel-Layer"/>
  <path class="fil0" d="M80.08 43c3.97,-9.09 12.95,-15 22.92,-15 9.97,0 18.95,5.91 22.92,15l-45.84 0zm41.82 44.28l-10.36 49.4c-0.56,2.7 1.17,5.34 3.87,5.9 2.7,0.56 5.34,-1.17 5.9,-3.86l10.36 -49.41c0.56,-2.69 -1.17,-5.33 -3.87,-5.89 -2.69,-0.56 -5.34,1.17 -5.9,3.86zm-27.44 49.4l-10.37 -49.4c-0.56,-2.69 -3.2,-4.42 -5.89,-3.86 -2.7,0.56 -4.43,3.2 -3.87,5.89l10.36 49.41c0.56,2.69 3.2,4.42 5.9,3.86 2.7,-0.56 4.43,-3.2 3.87,-5.9zm71.71 -70.45l-22.14 100.01c-1.53,6.91 -7.55,11.76 -14.63,11.76l-52.8 0c-7.08,0 -13.1,-4.85 -14.63,-11.76l-22.14 -100.01c-2.08,-9.38 5.02,-18.23 14.62,-18.23l97.1 0c9.6,0 16.7,8.85 14.62,18.23z"/>
 </g>
</svg>
