<?xml version="1.0" encoding="UTF-8"?>
<!DOCTYPE svg PUBLIC "-//W3C//DTD SVG 1.1//EN" "http://www.w3.org/Graphics/SVG/1.1/DTD/svg11.dtd">
<!-- Creator: CorelDRAW -->
<svg xmlns="http://www.w3.org/2000/svg" xml:space="preserve" width="206px" height="206px" version="1.1" style="shape-rendering:geometricPrecision; text-rendering:geometricPrecision; image-rendering:optimizeQuality; fill-rule:evenodd; clip-rule:evenodd"
viewBox="0 0 206 206"
 xmlns:xlink="http://www.w3.org/1999/xlink"
 xmlns:xodm="http://www.corel.com/coreldraw/odm/2003">
 <defs>
  <style type="text/css">
   <![CDATA[
    .fil0 {fill:#373435;fill-rule:nonzero}
   ]]>
  </style>
 </defs>
 <g id="Layer_x0020_1">
  <metadata id="CorelCorpID_0Corel-Layer"/>
  <path class="fil0" d="M123 58l-68.55 0c-3.25,0 -5.6,2.92 -4.9,6.09l22.15 100c0.52,2.35 2.5,3.91 4.9,3.91l52.8 0c2.4,0 4.38,-1.56 4.9,-3.91l22.15 -100c0.7,-3.17 -1.65,-6.09 -4.9,-6.09l-28.55 0zm-34.15 -10l28.3 0c-2.09,-5.98 -7.75,-10 -14.15,-10 -6.37,0 -12.04,4.02 -14.15,10zm-10.35 0c2.36,-11.62 12.62,-20 24.5,-20 11.89,0 22.14,8.43 24.5,20l24.05 0c9.6,0 16.7,8.85 14.62,18.23l-22.14 100.01c-1.53,6.91 -7.55,11.76 -14.63,11.76l-52.8 0c-7.08,0 -13.1,-4.85 -14.63,-11.76l-22.14 -100.01c-2.08,-9.38 5.02,-18.23 14.62,-18.23l24.05 0zm43.4 39.28c0.56,-2.69 3.21,-4.42 5.9,-3.86 2.7,0.56 4.43,3.2 3.87,5.89l-10.36 49.41c-0.56,2.69 -3.2,4.42 -5.9,3.86 -2.7,-0.56 -4.43,-3.2 -3.87,-5.9l10.36 -49.4zm-27.44 49.4c0.56,2.7 -1.17,5.34 -3.87,5.9 -2.7,0.56 -5.34,-1.17 -5.9,-3.86l-10.36 -49.41c-0.56,-2.69 1.17,-5.33 3.87,-5.89 2.69,-0.56 5.33,1.17 5.89,3.86l10.37 49.4z"/>
 </g>
</svg>
