<?xml version="1.0" encoding="UTF-8"?>
<!DOCTYPE svg PUBLIC "-//W3C//DTD SVG 1.1//EN" "http://www.w3.org/Graphics/SVG/1.1/DTD/svg11.dtd">
<!-- Creator: CorelDRAW -->
<svg xmlns="http://www.w3.org/2000/svg" xml:space="preserve" width="206px" height="206px" version="1.1" style="shape-rendering:geometricPrecision; text-rendering:geometricPrecision; image-rendering:optimizeQuality; fill-rule:evenodd; clip-rule:evenodd"
viewBox="0 0 206 206"
 xmlns:xlink="http://www.w3.org/1999/xlink"
 xmlns:xodm="http://www.corel.com/coreldraw/odm/2003">
 <defs>
  <style type="text/css">
   <![CDATA[
    .fil0 {fill:#373435;fill-rule:nonzero}
   ]]>
  </style>
 </defs>
 <g id="Layer_x0020_1">
  <metadata id="CorelCorpID_0Corel-Layer"/>
  <path class="fil0" d="M92.25 51.27l21.5 0c-1.28,-4.86 -5.7,-8.27 -10.75,-8.27 -5.05,0 -9.47,3.41 -10.75,8.27zm-15.22 0c1.43,-13.22 12.65,-23.27 25.97,-23.27 13.32,0 24.54,10.05 25.97,23.27l19.23 0c10.75,0 18.71,9.93 16.38,20.44l-20.62 93.11c-1.71,7.73 -8.45,13.18 -16.38,13.18l-49.16 0c-7.93,0 -14.67,-5.45 -16.38,-13.18l-20.62 -93.11c-2.33,-10.51 5.64,-20.44 16.38,-20.44l19.23 0zm40.79 38.85c0.84,-4.05 4.81,-6.64 8.85,-5.8 4.04,0.84 6.64,4.8 5.8,8.84l-9.65 46c-0.84,4.04 -4.8,6.64 -8.85,5.8 -4.04,-0.84 -6.64,-4.8 -5.8,-8.85l9.65 -45.99zm-20 45.99c0.85,4.05 -1.75,8.01 -5.8,8.85 -4.04,0.84 -8,-1.76 -8.84,-5.8l-9.65 -46c-0.84,-4.04 1.75,-8 5.8,-8.84 4.04,-0.84 8,1.75 8.85,5.8l9.64 45.99zm31.56 25.48l20.62 -93.1c0.25,-1.19 -0.58,-2.22 -1.8,-2.22l-90.4 0c-1.22,0 -2.06,1.04 -1.79,2.22l20.61 93.1c0.2,0.9 0.9,1.41 1.8,1.41l49.16 0c0.9,0 1.6,-0.51 1.8,-1.41z"/>
 </g>
</svg>
