<?xml version="1.0" encoding="UTF-8"?>
<!DOCTYPE svg PUBLIC "-//W3C//DTD SVG 1.1//EN" "http://www.w3.org/Graphics/SVG/1.1/DTD/svg11.dtd">
<!-- Creator: CorelDRAW -->
<svg xmlns="http://www.w3.org/2000/svg" xml:space="preserve" width="206px" height="206px" version="1.1" style="shape-rendering:geometricPrecision; text-rendering:geometricPrecision; image-rendering:optimizeQuality; fill-rule:evenodd; clip-rule:evenodd"
viewBox="0 0 206 206"
 xmlns:xlink="http://www.w3.org/1999/xlink"
 xmlns:xodm="http://www.corel.com/coreldraw/odm/2003">
 <defs>
  <style type="text/css">
   <![CDATA[
    .fil0 {fill:#373435;fill-rule:nonzero}
   ]]>
  </style>
 </defs>
 <g id="Layer_x0020_1">
  <metadata id="CorelCorpID_0Corel-Layer"/>
  <path class="fil0" d="M79 43.77l48 0c-4.03,-9.34 -13.34,-15.77 -24,-15.77 -10.66,0 -19.97,6.43 -24,15.77zm69.2 7.5c10.75,0 18.71,9.93 16.38,20.44l-20.62 93.11c-1.71,7.73 -8.45,13.18 -16.38,13.18l-49.16 0c-7.93,0 -14.67,-5.45 -16.38,-13.18l-20.62 -93.11c-2.33,-10.51 5.64,-20.44 16.38,-20.44l90.4 0zm-30.38 38.85l-9.65 45.99c-0.84,4.05 1.76,8.01 5.8,8.85 4.05,0.84 8.01,-1.76 8.85,-5.8l9.65 -46c0.84,-4.04 -1.76,-8 -5.8,-8.84 -4.04,-0.84 -8.01,1.75 -8.85,5.8zm-20 45.99l-9.64 -45.99c-0.85,-4.05 -4.81,-6.64 -8.85,-5.8 -4.05,0.84 -6.64,4.8 -5.8,8.84l9.65 46c0.84,4.04 4.8,6.64 8.84,5.8 4.05,-0.84 6.65,-4.8 5.8,-8.85z"/>
 </g>
</svg>
