<?xml version="1.0" encoding="UTF-8"?>
<!DOCTYPE svg PUBLIC "-//W3C//DTD SVG 1.1//EN" "http://www.w3.org/Graphics/SVG/1.1/DTD/svg11.dtd">
<!-- Creator: CorelDRAW -->
<svg xmlns="http://www.w3.org/2000/svg" xml:space="preserve" width="200px" height="200px" version="1.1" style="shape-rendering:geometricPrecision; text-rendering:geometricPrecision; image-rendering:optimizeQuality; fill-rule:evenodd; clip-rule:evenodd"
viewBox="0 0 200 200"
 xmlns:xlink="http://www.w3.org/1999/xlink"
 xmlns:xodm="http://www.corel.com/coreldraw/odm/2003">
 <defs>
  <style type="text/css">
   <![CDATA[
    .fil0 {fill:#373435;fill-rule:nonzero}
   ]]>
  </style>
 </defs>
 <g id="Layer_x0020_1">
  <metadata id="CorelCorpID_0Corel-Layer"/>
  <path class="fil0" d="M145.23 148.16l18.3 18.3c1.96,1.96 1.96,5.12 0,7.07 -1.95,1.96 -5.11,1.96 -7.07,0l-18.3 -18.3c-4.69,3.23 -10.16,4.85 -15.62,4.85 -15.21,0 -27.54,-12.33 -27.54,-27.54 0,-15.2 12.34,-27.54 27.54,-27.54 15.2,0 27.54,12.34 27.54,27.54 0,5.46 -1.62,10.93 -4.85,15.62zm-40.23 -15.62c0,9.69 7.85,17.54 17.54,17.54 9.69,0 17.54,-7.85 17.54,-17.54 0,-9.7 -7.84,-17.54 -17.54,-17.54 -9.7,0 -17.54,7.84 -17.54,17.54zm25 32.46c2.76,0 5,2.24 5,5 0,2.76 -2.24,5 -5,5l-80 0c-8.24,0 -15,-6.76 -15,-15l0 -120c0,-8.25 6.76,-15 15,-15l80 0c8.27,0 15,6.73 15,15l0 56.84c0,2.76 -2.24,5 -5,5 -2.76,0 -5,-2.24 -5,-5l0 -56.84c0,-2.75 -2.25,-5 -5,-5l-80 0c-2.77,0 -5,2.23 -5,5l0 120c0,2.77 2.23,5 5,5l80 0zm-68.15 -60.06c-2.76,0 -5,-2.24 -5,-5 0,-2.76 2.24,-5 5,-5l31.36 0c2.76,0 5,2.24 5,5 0,2.76 -2.24,5 -5,5l-31.36 0zm0 -23.32c-2.76,0 -5,-2.24 -5,-5 0,-2.76 2.24,-5 5,-5l53.75 0c2.76,0 5,2.24 5,5 0,2.76 -2.24,5 -5,5l-53.75 0zm0 -23.31c-2.76,0 -5,-2.24 -5,-5 0,-2.76 2.24,-5 5,-5l39.83 0c2.76,0 5,2.24 5,5 0,2.76 -2.24,5 -5,5l-39.83 0z"/>
 </g>
</svg>
