<?xml version="1.0" encoding="UTF-8"?>
<!DOCTYPE svg PUBLIC "-//W3C//DTD SVG 1.1//EN" "http://www.w3.org/Graphics/SVG/1.1/DTD/svg11.dtd">
<!-- Creator: CorelDRAW -->
<svg xmlns="http://www.w3.org/2000/svg" xml:space="preserve" width="200px" height="200px" version="1.1" style="shape-rendering:geometricPrecision; text-rendering:geometricPrecision; image-rendering:optimizeQuality; fill-rule:evenodd; clip-rule:evenodd"
viewBox="0 0 200 200"
 xmlns:xlink="http://www.w3.org/1999/xlink"
 xmlns:xodm="http://www.corel.com/coreldraw/odm/2003">
 <defs>
  <style type="text/css">
   <![CDATA[
    .fil0 {fill:#373435;fill-rule:nonzero}
   ]]>
  </style>
 </defs>
 <g id="Layer_x0020_1">
  <metadata id="CorelCorpID_0Corel-Layer"/>
  <path class="fil0" d="M60.14 133.85l4.3 -19.86c0.21,-0.97 0.69,-1.82 1.35,-2.47l47.72 -47.73c5.1,-5.1 13.64,-5.04 18.56,0.26l4.13 4.12c5.03,5.03 5.05,13.28 0.02,18.32l-47.73 47.73c-0.75,0.75 -1.69,1.21 -2.66,1.38l-19.78 4.28c-3.61,0.78 -6.75,-2.5 -5.91,-6.03zm13.75 -16.3l-2.37 10.93 10.93 -2.37 34.57 -34.56 -8.57 -8.56 -34.56 34.56zm46.69 -46.69l-5.06 5.06 8.57 8.56 5.06 -5.06c1.12,-1.12 1.14,-3.05 0.01,-4.17l-4.14 -4.14c-1.31,-1.23 -3.04,-1.65 -4.44,-0.25zm-20.58 -45.86c41.42,0 75,33.58 75,75 0,41.42 -33.58,75 -75,75 -41.42,0 -75,-33.58 -75,-75 0,-41.42 33.58,-75 75,-75zm60 75c0,-33.14 -26.86,-60 -60,-60 -33.14,0 -60,26.86 -60,60 0,33.14 26.86,60 60,60 33.14,0 60,-26.86 60,-60z"/>
 </g>
</svg>
