<?xml version="1.0" encoding="UTF-8"?>
<!DOCTYPE svg PUBLIC "-//W3C//DTD SVG 1.1//EN" "http://www.w3.org/Graphics/SVG/1.1/DTD/svg11.dtd">
<!-- Creator: CorelDRAW -->
<svg xmlns="http://www.w3.org/2000/svg" xml:space="preserve" width="200px" height="200px" version="1.1" style="shape-rendering:geometricPrecision; text-rendering:geometricPrecision; image-rendering:optimizeQuality; fill-rule:evenodd; clip-rule:evenodd"
viewBox="0 0 200 200"
 xmlns:xlink="http://www.w3.org/1999/xlink"
 xmlns:xodm="http://www.corel.com/coreldraw/odm/2003">
 <defs>
  <style type="text/css">
   <![CDATA[
    .fil0 {fill:#373435;fill-rule:nonzero}
   ]]>
  </style>
 </defs>
 <g id="Layer_x0020_1">
  <metadata id="CorelCorpID_0Corel-Layer"/>
  <path class="fil0" d="M60.14 133.85l4.3 -19.86c0.21,-0.97 0.69,-1.82 1.35,-2.47l47.72 -47.73c2.53,-2.53 5.84,-3.79 9.16,-3.79 3.31,0 6.63,1.26 9.16,3.79l0.24 0.26 4.13 4.12c2.53,2.54 3.8,5.86 3.8,9.16 0,3.32 -1.26,6.64 -3.78,9.16l-47.73 47.73c-0.75,0.75 -1.69,1.21 -2.66,1.38l-19.78 4.28c-2.69,0.58 -5.35,-1.13 -5.93,-3.83 -0.17,-0.75 -0.15,-1.49 0.02,-2.2zm63.95 -49.37l-7.07 7.07 -8.57 -8.56 7.07 -7.07 8.57 8.56zm-24.09 -59.48c-41.42,0 -75,33.58 -75,75 0,41.42 33.58,75 75,75 41.42,0 75,-33.58 75,-75 0,-41.42 -33.58,-75 -75,-75z"/>
 </g>
</svg>
