<?xml version="1.0" encoding="UTF-8"?>
<!DOCTYPE svg PUBLIC "-//W3C//DTD SVG 1.1//EN" "http://www.w3.org/Graphics/SVG/1.1/DTD/svg11.dtd">
<!-- Creator: CorelDRAW -->
<svg xmlns="http://www.w3.org/2000/svg" xml:space="preserve" width="206px" height="206px" version="1.1" style="shape-rendering:geometricPrecision; text-rendering:geometricPrecision; image-rendering:optimizeQuality; fill-rule:evenodd; clip-rule:evenodd"
viewBox="0 0 206 206"
 xmlns:xlink="http://www.w3.org/1999/xlink"
 xmlns:xodm="http://www.corel.com/coreldraw/odm/2003">
 <defs>
  <style type="text/css">
   <![CDATA[
    .fil0 {fill:#373435;fill-rule:nonzero}
   ]]>
  </style>
 </defs>
 <g id="Layer_x0020_1">
  <metadata id="CorelCorpID_0Corel-Layer"/>
  <path class="fil0" d="M106.29 50.99c26.4,-26.4 71.72,-7.21 71.72,29.96 0,10.78 -4.11,21.56 -12.34,29.79l-52.05 52.05c-10.04,10.04 -21.21,0 -21.21,0l-52.15 -52.14c-26.25,-26.25 -7.65,-71.82 29.87,-71.82 14.25,0 23.14,5.69 32.88,15.43l3.28 -3.27zm7.07 7.07c-11.09,11.08 -9.43,11.26 -20.52,0.18 -20.19,-20.19 -54.81,-5.79 -54.86,22.68 -0.01,8.21 3.1,16.41 9.35,22.66l52.15 52.14c1.93,1.93 5.13,1.94 7.07,0l52.05 -52.05c6.04,-6.04 9.43,-14.17 9.43,-22.72 0,-28.2 -34.41,-43.15 -54.67,-22.89z"/>
 </g>
</svg>
