<?xml version="1.0" encoding="UTF-8"?>
<!DOCTYPE svg PUBLIC "-//W3C//DTD SVG 1.1//EN" "http://www.w3.org/Graphics/SVG/1.1/DTD/svg11.dtd">
<!-- Creator: CorelDRAW -->
<svg xmlns="http://www.w3.org/2000/svg" xml:space="preserve" width="206px" height="206px" version="1.1" style="shape-rendering:geometricPrecision; text-rendering:geometricPrecision; image-rendering:optimizeQuality; fill-rule:evenodd; clip-rule:evenodd"
viewBox="0 0 206 206"
 xmlns:xlink="http://www.w3.org/1999/xlink"
 xmlns:xodm="http://www.corel.com/coreldraw/odm/2003">
 <defs>
  <style type="text/css">
   <![CDATA[
    .fil0 {fill:#373435;fill-rule:nonzero}
   ]]>
  </style>
 </defs>
 <g id="Layer_x0020_1">
  <metadata id="CorelCorpID_0Corel-Layer"/>
  <path class="fil0" d="M165.87 150.31c0.02,8.26 -6.74,14.97 -14.99,14.99l-95.76 0.01c-8.25,0 -15,-6.75 -15,-15l0 -52.15 -4.17 3.07c-2.22,1.63 -5.35,1.15 -6.97,-1.07 -1.63,-2.22 -1.15,-5.35 1.07,-6.98 23.33,-17.17 46.67,-34.35 70,-51.53 1.83,-1.34 4.26,-1.25 5.97,0.06l69.93 51.48c2.22,1.62 2.7,4.75 1.07,6.97 -1.62,2.22 -4.75,2.7 -6.97,1.07l-4.21 -3.1 0.03 52.18zm-81.62 5l37.5 0.01 0 -30.35c0,-8.28 -8.4,-15 -18.75,-15 -10.35,0 -18.75,6.72 -18.75,15l0 30.34z"/>
 </g>
</svg>
