<?xml version="1.0" encoding="UTF-8"?>
<!DOCTYPE svg PUBLIC "-//W3C//DTD SVG 1.1//EN" "http://www.w3.org/Graphics/SVG/1.1/DTD/svg11.dtd">
<!-- Creator: CorelDRAW -->
<svg xmlns="http://www.w3.org/2000/svg" xml:space="preserve" width="206px" height="206px" version="1.1" style="shape-rendering:geometricPrecision; text-rendering:geometricPrecision; image-rendering:optimizeQuality; fill-rule:evenodd; clip-rule:evenodd"
viewBox="0 0 206 206"
 xmlns:xlink="http://www.w3.org/1999/xlink"
 xmlns:xodm="http://www.corel.com/coreldraw/odm/2003">
 <defs>
  <style type="text/css">
   <![CDATA[
    .fil0 {fill:#373435;fill-rule:nonzero}
   ]]>
  </style>
 </defs>
 <g id="Layer_x0020_1">
  <metadata id="CorelCorpID_0Corel-Layer"/>
  <path class="fil0" d="M116.73 155.31l0 -30.34c0,-13.14 -27.49,-13.14 -27.49,0l0 30.34 27.49 0zm10.01 -30.34l0 30.34 24.13 0c0.85,0.01 5,-0.75 5,-5l-0.01 -59.52 -52.87 -38.92 -52.88 38.93 0 59.51c0,2.78 2.23,5 5,5l24.13 0 0 -30.34c0,-17.52 25.02,-26.56 40.11,-14.49 4.56,3.65 7.39,8.77 7.39,14.49zm39.08 -26.84l0.05 52.18c0,8.25 -6.74,14.98 -15,14.98l-95.76 0.02c-8.25,0 -15,-6.75 -15,-15l0 -52.15c-2.9,2.13 -7.65,6.77 -11.15,2 -1.62,-2.22 -1.14,-5.35 1.08,-6.98 23.33,-17.17 46.67,-34.35 70,-51.53 1.82,-1.34 4.26,-1.25 5.97,0.06l69.93 51.48c5.28,3.87 -0.63,11.91 -5.9,8.04l-4.22 -3.1z"/>
 </g>
</svg>
