<?xml version="1.0" encoding="UTF-8"?>
<!DOCTYPE svg PUBLIC "-//W3C//DTD SVG 1.1//EN" "http://www.w3.org/Graphics/SVG/1.1/DTD/svg11.dtd">
<!-- Creator: CorelDRAW -->
<svg xmlns="http://www.w3.org/2000/svg" xml:space="preserve" width="200px" height="200px" version="1.1" style="shape-rendering:geometricPrecision; text-rendering:geometricPrecision; image-rendering:optimizeQuality; fill-rule:evenodd; clip-rule:evenodd"
viewBox="0 0 200 200"
 xmlns:xlink="http://www.w3.org/1999/xlink"
 xmlns:xodm="http://www.corel.com/coreldraw/odm/2003">
 <defs>
  <style type="text/css">
   <![CDATA[
    .fil0 {fill:#373435;fill-rule:nonzero}
   ]]>
  </style>
 </defs>
 <g id="Layer_x0020_1">
  <metadata id="CorelCorpID_0Corel-Layer"/>
  <path class="fil0" d="M57.59 90.28l0 -20.37c0,-23.42 18.99,-42.41 42.41,-42.41 23.42,0 42.41,18.99 42.41,42.41l0 20.37 0.63 0c8.24,0 15,6.76 15,15l0 52.22c0,8.24 -6.76,15 -15,15l-86.08 0c-8.24,0 -15,-6.76 -15,-15l0 -52.22c0,-8.24 6.76,-15 15,-15l0.63 0zm10 -20.37l0 20.37 64.82 0 0 -20.37c0,-17.9 -14.51,-32.41 -32.41,-32.41 -17.9,0 -32.41,14.51 -32.41,32.41zm32.41 51.9c-1.38,0 -2.63,0.56 -3.54,1.47 -0.9,0.9 -1.46,2.15 -1.46,3.53 0,1.38 0.56,2.64 1.46,3.54 0.13,0.13 0.27,0.25 0.41,0.36l-1.76 7.01c-0.07,0.24 -0.11,0.49 -0.11,0.75 0,1.38 1.12,2.5 2.5,2.5l5 0c0.2,0 0.4,-0.03 0.61,-0.08 1.33,-0.33 2.15,-1.69 1.81,-3.03l-1.79 -7.15c0.14,-0.11 0.28,-0.23 0.41,-0.36 0.9,-0.92 1.46,-2.16 1.46,-3.54 0,-1.38 -0.56,-2.63 -1.47,-3.53 -0.91,-0.91 -2.16,-1.47 -3.53,-1.47z"/>
 </g>
</svg>
