<?xml version="1.0" encoding="UTF-8"?>
<!DOCTYPE svg PUBLIC "-//W3C//DTD SVG 1.1//EN" "http://www.w3.org/Graphics/SVG/1.1/DTD/svg11.dtd">
<!-- Creator: CorelDRAW -->
<svg xmlns="http://www.w3.org/2000/svg" xml:space="preserve" width="200px" height="200px" version="1.1" style="shape-rendering:geometricPrecision; text-rendering:geometricPrecision; image-rendering:optimizeQuality; fill-rule:evenodd; clip-rule:evenodd"
viewBox="0 0 200 200"
 xmlns:xlink="http://www.w3.org/1999/xlink"
 xmlns:xodm="http://www.corel.com/coreldraw/odm/2003">
 <defs>
  <style type="text/css">
   <![CDATA[
    .fil0 {fill:#373435;fill-rule:nonzero}
   ]]>
  </style>
 </defs>
 <g id="Layer_x0020_1">
  <metadata id="CorelCorpID_0Corel-Layer"/>
  <path class="fil0" d="M100 117.03c-4.14,0 -7.5,3.35 -7.5,7.49 0,2.31 1.03,4.41 2.8,5.85l-2.63 10.52c-0.75,2.38 1.05,4.87 3.58,4.87l7.5 -0.01c2.4,0 4.22,-2.29 3.63,-4.65l-2.68 -10.73c1.74,-1.41 2.8,-3.59 2.8,-5.85 0,-4.13 -3.37,-7.49 -7.5,-7.49zm-29.91 -29.25l59.82 0 0 -17.87c0,-16.52 -13.39,-29.91 -29.91,-29.91 -16.52,0 -29.91,13.39 -29.91,29.91l0 17.87zm74.82 0.1c8.82,0.95 15.63,8.5 15.63,17.4l0 52.22c0,9.61 -7.89,17.5 -17.5,17.5l-86.08 0c-9.61,0 -17.5,-7.89 -17.5,-17.5l0 -52.22c0,-8.9 6.81,-16.45 15.63,-17.4l0 -17.97c0,-24.8 20.11,-44.91 44.91,-44.91 24.8,0 44.91,20.11 44.91,44.91l0 17.97z"/>
 </g>
</svg>
