<?xml version="1.0" encoding="UTF-8"?>
<!DOCTYPE svg PUBLIC "-//W3C//DTD SVG 1.1//EN" "http://www.w3.org/Graphics/SVG/1.1/DTD/svg11.dtd">
<!-- Creator: CorelDRAW -->
<svg xmlns="http://www.w3.org/2000/svg" xml:space="preserve" width="200px" height="200px" version="1.1" style="shape-rendering:geometricPrecision; text-rendering:geometricPrecision; image-rendering:optimizeQuality; fill-rule:evenodd; clip-rule:evenodd"
viewBox="0 0 200 200"
 xmlns:xlink="http://www.w3.org/1999/xlink"
 xmlns:xodm="http://www.corel.com/coreldraw/odm/2003">
 <defs>
  <style type="text/css">
   <![CDATA[
    .fil0 {fill:#373435;fill-rule:nonzero}
   ]]>
  </style>
 </defs>
 <g id="Layer_x0020_1">
  <metadata id="CorelCorpID_0Corel-Layer"/>
  <path class="fil0" d="M100 117.03c4.13,0 7.5,3.36 7.5,7.49 0,2.26 -1.06,4.44 -2.8,5.85l2.68 10.73c0.59,2.36 -1.23,4.65 -3.63,4.65l-7.5 0.01c-2.53,0 -4.33,-2.49 -3.58,-4.87l2.63 -10.52c-1.77,-1.44 -2.8,-3.54 -2.8,-5.85 0,-4.14 3.36,-7.49 7.5,-7.49zm-29.91 -29.25l59.82 0 0 -17.87c0,-16.52 -13.39,-29.91 -29.91,-29.91 -16.52,0 -29.91,13.39 -29.91,29.91l0 17.87zm72.95 15l-86.08 0c-1.4,0 -2.5,1.1 -2.5,2.5l0 52.22c0,1.4 1.1,2.5 2.5,2.5l86.08 0c1.4,0 2.5,-1.1 2.5,-2.5l0 -52.22c0,-1.4 -1.1,-2.5 -2.5,-2.5zm1.87 -14.9c8.82,0.95 15.63,8.5 15.63,17.4l0 52.22c0,9.61 -7.89,17.5 -17.5,17.5l-86.08 0c-9.61,0 -17.5,-7.89 -17.5,-17.5l0 -52.22c0,-8.9 6.81,-16.45 15.63,-17.4l0 -17.97c0,-24.8 20.11,-44.91 44.91,-44.91 24.8,0 44.91,20.11 44.91,44.91l0 17.97z"/>
 </g>
</svg>
