<?xml version="1.0" encoding="UTF-8"?>
<!DOCTYPE svg PUBLIC "-//W3C//DTD SVG 1.1//EN" "http://www.w3.org/Graphics/SVG/1.1/DTD/svg11.dtd">
<!-- Creator: CorelDRAW -->
<svg xmlns="http://www.w3.org/2000/svg" xml:space="preserve" width="206px" height="206px" version="1.1" style="shape-rendering:geometricPrecision; text-rendering:geometricPrecision; image-rendering:optimizeQuality; fill-rule:evenodd; clip-rule:evenodd"
viewBox="0 0 206 206"
 xmlns:xlink="http://www.w3.org/1999/xlink"
 xmlns:xodm="http://www.corel.com/coreldraw/odm/2003">
 <defs>
  <style type="text/css">
   <![CDATA[
    .fil0 {fill:#373435;fill-rule:nonzero}
   ]]>
  </style>
 </defs>
 <g id="Layer_x0020_1">
  <metadata id="CorelCorpID_0Corel-Layer"/>
  <path class="fil0" d="M121.33 43c0,2.76 2.24,5 5,5 2.76,0 5,-2.24 5,-5 0,-8.24 -6.75,-15 -15,-15l-73.33 0c-8.24,0 -15,6.76 -15,15l0 120c0,8.24 6.76,15 15,15l73.33 0c8.25,0 15,-6.76 15,-15 0,-2.76 -2.24,-5 -5,-5 -2.76,0 -5,2.24 -5,5 0,2.77 -2.23,5 -5,5l-73.33 0c-2.77,0 -5,-2.23 -5,-5l0 -120c0,-2.77 2.23,-5 5,-5l73.33 0c2.77,0 5,2.23 5,5zm-39.41 65c-2.76,0 -5,-2.24 -5,-5 0,-2.76 2.24,-5 5,-5l81.1 0 -22.1 -22.1c-1.95,-1.95 -1.95,-5.12 0,-7.07 1.96,-1.95 5.12,-1.95 7.07,0l27.1 27.1c3.88,3.88 3.88,10.24 0,14.12l-27.1 27.12c-1.95,1.95 -5.12,1.95 -7.07,0 -1.95,-1.95 -1.95,-5.12 0,-7.07l22.1 -22.1 -81.1 0z"/>
 </g>
</svg>
