<?xml version="1.0" encoding="UTF-8"?>
<!DOCTYPE svg PUBLIC "-//W3C//DTD SVG 1.1//EN" "http://www.w3.org/Graphics/SVG/1.1/DTD/svg11.dtd">
<!-- Creator: CorelDRAW -->
<svg xmlns="http://www.w3.org/2000/svg" xml:space="preserve" width="206px" height="206px" version="1.1" style="shape-rendering:geometricPrecision; text-rendering:geometricPrecision; image-rendering:optimizeQuality; fill-rule:evenodd; clip-rule:evenodd"
viewBox="0 0 206 206"
 xmlns:xlink="http://www.w3.org/1999/xlink"
 xmlns:xodm="http://www.corel.com/coreldraw/odm/2003">
 <defs>
  <style type="text/css">
   <![CDATA[
    .fil0 {fill:#373435;fill-rule:nonzero}
   ]]>
  </style>
 </defs>
 <g id="Layer_x0020_1">
  <metadata id="CorelCorpID_0Corel-Layer"/>
  <path class="fil0" d="M133 156.04c0,-4.15 -3.36,-7.5 -7.5,-7.5 -4.14,0 -7.5,3.35 -7.5,7.5 0,3.85 -3.11,6.96 -6.96,6.96l-61.08 0c-3.82,0 -6.96,-3.14 -6.96,-6.96l0 -106.08c0,-3.86 3.1,-6.96 6.96,-6.96l61.08 0c3.82,0 6.96,3.14 6.96,6.96 0,4.15 3.36,7.5 7.5,7.5 4.14,0 7.5,-3.35 7.5,-7.5 0,-12.1 -9.86,-21.96 -21.96,-21.96l-61.08 0c-12.06,0 -21.96,9.9 -21.96,21.96l0 106.08c0,12.1 9.86,21.96 21.96,21.96l61.08 0c12.07,0 21.96,-9.89 21.96,-21.96zm41.41 -44.34l-26.12 26.14c-2.93,2.93 -7.68,2.93 -10.61,0 -2.93,-2.93 -2.93,-7.68 0,-10.6l16.73 -16.74 -71.73 0c-4.14,0 -7.5,-3.36 -7.5,-7.5 0,-4.14 3.36,-7.5 7.5,-7.5l71.73 0 -16.73 -16.74c-2.93,-2.92 -2.93,-7.67 0,-10.6 2.93,-2.93 7.68,-2.93 10.61,0l26.12 26.13c4.8,4.79 4.77,12.61 0,17.41z"/>
 </g>
</svg>
