<?xml version="1.0" encoding="UTF-8"?>
<!DOCTYPE svg PUBLIC "-//W3C//DTD SVG 1.1//EN" "http://www.w3.org/Graphics/SVG/1.1/DTD/svg11.dtd">
<!-- Creator: CorelDRAW -->
<svg xmlns="http://www.w3.org/2000/svg" xml:space="preserve" width="206px" height="206px" version="1.1" style="shape-rendering:geometricPrecision; text-rendering:geometricPrecision; image-rendering:optimizeQuality; fill-rule:evenodd; clip-rule:evenodd"
viewBox="0 0 206 206"
 xmlns:xlink="http://www.w3.org/1999/xlink"
 xmlns:xodm="http://www.corel.com/coreldraw/odm/2003">
 <defs>
  <style type="text/css">
   <![CDATA[
    .fil0 {fill:#373435;fill-rule:nonzero}
   ]]>
  </style>
 </defs>
 <g id="Layer_x0020_1">
  <metadata id="CorelCorpID_0Corel-Layer"/>
  <path class="fil0" d="M46.7 78.62c-2.32,-1.48 -2.99,-4.57 -1.5,-6.89 1.49,-2.32 4.58,-2.99 6.89,-1.5l48.19 31.07c1.71,1.11 3.73,1.11 5.44,0l48.19 -31.07c2.31,-1.49 5.4,-0.82 6.89,1.5 1.49,2.32 0.82,5.41 -1.5,6.89l-48.18 31.08c-5.04,3.25 -11.2,3.25 -16.24,0l-48.18 -31.08zm-3.7 -25.62l120 0c8.25,0 15,6.75 15,15l0 70c0,8.24 -6.75,15 -15,15l-120 0c-8.24,0 -15,-6.75 -15,-15l0 -70c0,-8.25 6.76,-15 15,-15zm120 10l-120 0c-2.77,0 -5,2.23 -5,5l0 70c0,2.77 2.23,5 5,5l120 0c2.77,0 5,-2.23 5,-5l0 -70c0,-2.77 -2.23,-5 -5,-5z"/>
 </g>
</svg>
