<?xml version="1.0" encoding="UTF-8"?>
<!DOCTYPE svg PUBLIC "-//W3C//DTD SVG 1.1//EN" "http://www.w3.org/Graphics/SVG/1.1/DTD/svg11.dtd">
<!-- Creator: CorelDRAW -->
<svg xmlns="http://www.w3.org/2000/svg" xml:space="preserve" width="206px" height="206px" version="1.1" style="shape-rendering:geometricPrecision; text-rendering:geometricPrecision; image-rendering:optimizeQuality; fill-rule:evenodd; clip-rule:evenodd"
viewBox="0 0 206 206"
 xmlns:xlink="http://www.w3.org/1999/xlink"
 xmlns:xodm="http://www.corel.com/coreldraw/odm/2003">
 <defs>
  <style type="text/css">
   <![CDATA[
    .fil0 {fill:#373435;fill-rule:nonzero}
   ]]>
  </style>
 </defs>
 <g id="Layer_x0020_1">
  <metadata id="CorelCorpID_0Corel-Layer"/>
  <path class="fil0" d="M54.12 87.05c-3.48,-2.23 -4.49,-6.86 -2.26,-10.34 2.23,-3.48 6.86,-4.49 10.34,-2.26l39.62 25.56c0.76,0.49 1.59,0.49 2.36,0l39.62 -25.56c3.48,-2.23 8.11,-1.22 10.34,2.26 2.23,3.48 1.22,8.11 -2.26,10.34l-39.61 25.55c-5.72,3.69 -12.82,3.69 -18.54,0l-39.61 -25.55zm-4.16 -34.05l106.08 0c11.94,0 21.96,9.64 21.96,21.67l0 56.66c0,12.03 -10.02,21.67 -21.96,21.67l-106.08 0c-11.94,0 -21.96,-9.64 -21.96,-21.67l0 -56.66c0,-12.03 10.02,-21.67 21.96,-21.67zm106.08 15l-106.08 0c-3.73,0 -6.96,2.85 -6.96,6.67l0 56.66c0,3.82 3.23,6.67 6.96,6.67l106.08 0c3.73,0 6.96,-2.85 6.96,-6.67l0 -56.66c0,-3.82 -3.23,-6.67 -6.96,-6.67z"/>
 </g>
</svg>
