<?xml version="1.0" encoding="UTF-8"?>
<!DOCTYPE svg PUBLIC "-//W3C//DTD SVG 1.1//EN" "http://www.w3.org/Graphics/SVG/1.1/DTD/svg11.dtd">
<!-- Creator: CorelDRAW -->
<svg xmlns="http://www.w3.org/2000/svg" xml:space="preserve" width="206px" height="206px" version="1.1" style="shape-rendering:geometricPrecision; text-rendering:geometricPrecision; image-rendering:optimizeQuality; fill-rule:evenodd; clip-rule:evenodd"
viewBox="0 0 206 206"
 xmlns:xlink="http://www.w3.org/1999/xlink"
 xmlns:xodm="http://www.corel.com/coreldraw/odm/2003">
 <defs>
  <style type="text/css">
   <![CDATA[
    .fil0 {fill:#373435;fill-rule:nonzero}
   ]]>
  </style>
 </defs>
 <g id="Layer_x0020_1">
  <metadata id="CorelCorpID_0Corel-Layer"/>
  <path class="fil0" d="M115.34 83.44c0,2.76 -2.24,5 -5,5l-67.34 0c-2.77,0 -5,2.23 -5,5l0 30c0,2.77 2.23,5 5,5l120 0c2.76,0 5,-2.24 5,-5 0,-2.76 2.24,-5 5,-5 2.76,0 5,2.24 5,5 0,8.25 -6.75,15 -15,15l-120 0c-8.24,0 -15,-6.76 -15,-15l0 -30c0,-8.24 6.76,-15 15,-15l67.34 0c2.76,0 5,2.24 5,5zm4.01 37.01l3.07 -14.19c0.16,-0.73 0.52,-1.37 1.02,-1.86l34.08 -34.09c3.89,-3.53 9.53,-3.81 13.34,0 0.32,0.35 3.09,3.14 3.13,3.14 3.67,3.66 3.67,9.65 0,13.31 0,0.04 -24.96,24.98 -34.09,34.11 -0.56,0.56 -1.25,0.91 -1.98,1.04l-14.13 3.06c-2.71,0.58 -5.06,-1.88 -4.44,-4.52zm45.85 -35.48l-5.86 -5.87 -5.3 5.31 5.86 5.86 5.3 -5.3zm-109.59 12.53l-5.72 2.07 1.22 4.28 3.87 -1.06 0 16.59 5 0 0 -21.88 -4.37 0zm7.25 21.88l14.87 0 0 -4.81 -7.34 0 3.62 -3.66c2,-2.01 3.41,-4.25 3.41,-6.88 0,-4.4 -3.5,-6.96 -7.41,-6.96 -3.03,0 -5.97,1.53 -7.37,4.78l4.22 2.47c0.59,-1.38 1.68,-2.38 3.22,-2.38 1.46,0 2.34,0.94 2.34,2.31 0,1.28 -0.95,2.56 -2.22,3.88l-7.34 7.62 0 3.63zm27.25 -13l3.78 -4.81 0 -4.07 -14.06 0 0 4.69 8 0 -3.97 5.03 1.9 2.85 1.04 0c2.06,0 2.96,1.09 2.96,2.43 0,1.35 -0.9,2.44 -2.96,2.44 -1.91,0 -2.85,-0.87 -3.35,-2.31l-4.31 2.5c1.34,3.22 4.34,4.69 7.66,4.69 4.21,0 7.96,-2.5 7.96,-7.32 0,-3.03 -1.96,-5.18 -4.65,-6.12zm24.41 -7.94l0 20c0,2.76 -2.24,5 -5,5l-61.52 0c-2.76,0 -5,-2.24 -5,-5l0 -20c0,-2.76 2.24,-5 5,-5l61.52 0c2.76,0 5,2.24 5,5z"/>
 </g>
</svg>
