<?xml version="1.0" encoding="UTF-8"?>
<!DOCTYPE svg PUBLIC "-//W3C//DTD SVG 1.1//EN" "http://www.w3.org/Graphics/SVG/1.1/DTD/svg11.dtd">
<!-- Creator: CorelDRAW -->
<svg xmlns="http://www.w3.org/2000/svg" xml:space="preserve" width="200px" height="200px" version="1.1" style="shape-rendering:geometricPrecision; text-rendering:geometricPrecision; image-rendering:optimizeQuality; fill-rule:evenodd; clip-rule:evenodd"
viewBox="0 0 200 200"
 xmlns:xlink="http://www.w3.org/1999/xlink"
 xmlns:xodm="http://www.corel.com/coreldraw/odm/2003">
 <defs>
  <style type="text/css">
   <![CDATA[
    .fil0 {fill:#373435;fill-rule:nonzero}
   ]]>
  </style>
 </defs>
 <g id="Layer_x0020_1">
  <metadata id="CorelCorpID_0Corel-Layer"/>
  <path class="fil0" d="M40 25l120 0c8.25,0 15,6.75 15,15l0 7.5c0,8.24 -6.75,15 -15,15l-120 0c-8.24,0 -15,-6.76 -15,-15l0 -7.5c0,-8.25 6.76,-15 15,-15zm0 112.5l120 0c8.24,0 15,6.76 15,15l0 7.5c0,8.24 -6.76,15 -15,15l-120 0c-8.25,0 -15,-6.76 -15,-15l0 -7.5c0,-8.24 6.75,-15 15,-15zm0 -56.25l120 0c8.25,0 15,6.75 15,15l0 7.5c0,8.24 -6.75,15 -15,15l-120 0c-8.24,0 -15,-6.76 -15,-15l0 -7.5c0,-8.25 6.76,-15 15,-15z"/>
 </g>
</svg>
