<?xml version="1.0" encoding="UTF-8"?>
<!DOCTYPE svg PUBLIC "-//W3C//DTD SVG 1.1//EN" "http://www.w3.org/Graphics/SVG/1.1/DTD/svg11.dtd">
<!-- Creator: CorelDRAW -->
<svg xmlns="http://www.w3.org/2000/svg" xml:space="preserve" width="206px" height="206px" version="1.1" style="shape-rendering:geometricPrecision; text-rendering:geometricPrecision; image-rendering:optimizeQuality; fill-rule:evenodd; clip-rule:evenodd"
viewBox="0 0 206 206"
 xmlns:xlink="http://www.w3.org/1999/xlink"
 xmlns:xodm="http://www.corel.com/coreldraw/odm/2003">
 <defs>
  <style type="text/css">
   <![CDATA[
    .fil0 {fill:#373435;fill-rule:nonzero}
   ]]>
  </style>
 </defs>
 <g id="Layer_x0020_1">
  <metadata id="CorelCorpID_0Corel-Layer"/>
  <path class="fil0" d="M53.32 131.58l0 -53.9c0,-27.34 22.35,-49.68 49.68,-49.68 27.33,0 49.68,22.35 49.68,49.68 0,5.6 -0.37,53.14 0.17,54.28l6.58 12.59c3.51,6.71 -1.43,14.62 -8.84,14.62l-24.29 0c-2.34,10.91 -12.06,18.83 -23.3,18.83 -11.24,0 -20.97,-7.92 -23.31,-18.83l-24.28 0c-7.43,0 -12.34,-7.92 -8.84,-14.62l6.75 -12.97zm49.68 -93.58c-21.81,0 -39.68,17.86 -39.68,39.68l0 53.9c0,1.62 -0.4,3.19 -1.15,4.62l-6.77 12.95 95.22 0.04 -6.6 -12.62c-0.87,-1.51 -1.34,-3.24 -1.34,-4.99l0 -53.9c0,-21.81 -17.87,-39.68 -39.68,-39.68zm12.91 121.17l-25.82 0c2.06,5.33 7.17,8.83 12.91,8.83 5.74,0 10.85,-3.5 12.91,-8.83z"/>
 </g>
</svg>
