<?xml version="1.0" encoding="UTF-8"?>
<!DOCTYPE svg PUBLIC "-//W3C//DTD SVG 1.1//EN" "http://www.w3.org/Graphics/SVG/1.1/DTD/svg11.dtd">
<!-- Creator: CorelDRAW -->
<svg xmlns="http://www.w3.org/2000/svg" xml:space="preserve" width="206px" height="206px" version="1.1" style="shape-rendering:geometricPrecision; text-rendering:geometricPrecision; image-rendering:optimizeQuality; fill-rule:evenodd; clip-rule:evenodd"
viewBox="0 0 206 206"
 xmlns:xlink="http://www.w3.org/1999/xlink"
 xmlns:xodm="http://www.corel.com/coreldraw/odm/2003">
 <defs>
  <style type="text/css">
   <![CDATA[
    .fil0 {fill:#373435;fill-rule:nonzero}
   ]]>
  </style>
 </defs>
 <g id="Layer_x0020_1">
  <metadata id="CorelCorpID_0Corel-Layer"/>
  <path class="fil0" d="M124.23 28l5.63 0c2.01,0 3.64,1.63 3.64,3.63l-1.47 29.72c-0.07,1.96 -1.68,3.49 -3.62,3.5l-2.72 0.01c-2.11,0 -3.68,-1.72 -3.63,-3.81l-1.44 -29.29c-0.09,-2.25 1.53,-3.52 3.61,-3.76zm4.18 50l-2.72 0c-2.01,0 -3.64,-1.63 -3.64,-3.63l0 -2.47c0,-2 1.63,-3.63 3.64,-3.63l2.72 0c2.01,0 3.63,1.63 3.63,3.63l0 2.47c0,2 -1.62,3.63 -3.63,3.63zm-38.32 81.17c2.06,5.33 7.17,8.83 12.91,8.83 5.74,0 10.85,-3.5 12.91,-8.83l-25.82 0zm-10.4 0l-24.28 0c-7.43,0 -12.34,-7.92 -8.84,-14.62 0.63,-1.23 6.75,-12.85 6.75,-12.97l0 -53.9c0,-13.67 5.59,-26.09 14.59,-35.09 9,-9 21.42,-14.59 35.09,-14.59 2.39,0 4.82,0.18 7.19,0.53 2.72,0.4 4.61,2.93 4.21,5.66 -0.39,2.73 -2.93,4.62 -5.66,4.22 -1.92,-0.28 -3.8,-0.41 -5.74,-0.41 -10.91,0 -20.83,4.46 -28.02,11.66 -7.19,7.19 -11.66,17.11 -11.66,28.02l0 53.9c0,1.62 -0.4,3.19 -1.15,4.62l-6.77 12.97c9.05,0 95.16,-0.04 95.22,0.02l-6.6 -12.62c-0.87,-1.51 -1.34,-3.24 -1.34,-4.99l0 -53.9c0,-6.09 -1.38,-12.04 -4.08,-17.49 -1.22,-2.47 -0.2,-5.46 2.27,-6.68 2.46,-1.22 5.46,-0.2 6.67,2.27 3.38,6.81 5.14,14.29 5.14,21.9 0,5.59 -0.37,53.15 0.17,54.27l6.58 12.6c3.51,6.71 -1.43,14.62 -8.84,14.62l-24.29 0c-2.34,10.91 -12.06,18.83 -23.3,18.83 -11.24,0 -20.97,-7.92 -23.31,-18.83z"/>
 </g>
</svg>
