<?xml version="1.0" encoding="UTF-8"?>
<!DOCTYPE svg PUBLIC "-//W3C//DTD SVG 1.1//EN" "http://www.w3.org/Graphics/SVG/1.1/DTD/svg11.dtd">
<!-- Creator: CorelDRAW -->
<svg xmlns="http://www.w3.org/2000/svg" xml:space="preserve" width="206px" height="206px" version="1.1" style="shape-rendering:geometricPrecision; text-rendering:geometricPrecision; image-rendering:optimizeQuality; fill-rule:evenodd; clip-rule:evenodd"
viewBox="0 0 206 206"
 xmlns:xlink="http://www.w3.org/1999/xlink"
 xmlns:xodm="http://www.corel.com/coreldraw/odm/2003">
 <defs>
  <style type="text/css">
   <![CDATA[
    .fil0 {fill:#373435;fill-rule:nonzero}
   ]]>
  </style>
 </defs>
 <g id="Layer_x0020_1">
  <metadata id="CorelCorpID_0Corel-Layer"/>
  <path class="fil0" d="M124.23 28l5.63 0c2.01,0 3.64,1.63 3.64,3.63l-1.47 29.72c-0.07,1.96 -1.68,3.49 -3.62,3.5l-2.72 0.01c-2.11,0 -3.68,-1.72 -3.63,-3.81l-1.44 -29.29c-0.09,-2.25 1.53,-3.52 3.61,-3.76zm4.18 50l-2.72 0c-2.01,0 -3.64,-1.63 -3.64,-3.63l0 -2.47c0,-2 1.63,-3.63 3.64,-3.63l2.72 0c2.01,0 3.63,1.63 3.63,3.63l0 2.47c0,2 -1.62,3.63 -3.63,3.63zm-3.78 86.17c-3.82,8.25 -12.19,13.83 -21.63,13.83 -9.44,0 -17.81,-5.58 -21.63,-13.83l43.26 0zm-8.8 -134.48c-4.1,-1.1 -8.4,-1.69 -12.83,-1.69 -27.33,0 -49.68,22.34 -49.68,49.68l0 53.9 -6.75 12.97c-3.5,6.7 1.41,14.62 8.84,14.62l95.18 0c7.41,0 12.35,-7.91 8.84,-14.62l-6.58 -12.59c-0.54,-1.14 -0.17,-48.68 -0.17,-54.28 0,-13.74 -5.65,-26.21 -14.73,-35.22l-0.96 19.35c-0.12,1.79 -0.78,3.42 -1.81,4.73 1.16,1.48 1.86,3.34 1.86,5.36l0 2.47c0,2.38 -0.96,4.54 -2.53,6.1 -1.56,1.56 -3.72,2.53 -6.1,2.53l-2.72 0c-2.39,0 -4.55,-0.97 -6.11,-2.53 -1.56,-1.56 -2.53,-3.72 -2.53,-6.1l0 -2.47c0,-2.01 0.7,-3.87 1.86,-5.35 -1.17,-1.49 -1.85,-3.37 -1.85,-5.4l0 -0.2 -1.43 -29.23c-0.01,-0.72 0.06,-1.39 0.2,-2.03z"/>
 </g>
</svg>
