<?xml version="1.0" encoding="UTF-8"?>
<!DOCTYPE svg PUBLIC "-//W3C//DTD SVG 1.1//EN" "http://www.w3.org/Graphics/SVG/1.1/DTD/svg11.dtd">
<!-- Creator: CorelDRAW -->
<svg xmlns="http://www.w3.org/2000/svg" xml:space="preserve" width="200px" height="200px" version="1.1" style="shape-rendering:geometricPrecision; text-rendering:geometricPrecision; image-rendering:optimizeQuality; fill-rule:evenodd; clip-rule:evenodd"
viewBox="0 0 200 200"
 xmlns:xlink="http://www.w3.org/1999/xlink"
 xmlns:xodm="http://www.corel.com/coreldraw/odm/2003">
 <defs>
  <style type="text/css">
   <![CDATA[
    .fil0 {fill:#373435;fill-rule:nonzero}
   ]]>
  </style>
 </defs>
 <g id="Layer_x0020_1">
  <metadata id="CorelCorpID_0Corel-Layer"/>
  <path class="fil0" d="M175 59.87l0 108.27c0,5 -6.54,6.85 -9.21,2.7 -10.09,-12.18 -51.62,-12.19 -61.63,0.06 -1.96,2.97 -6.36,2.98 -8.33,-0.02 -9.86,-12.03 -51.42,-12.36 -61.62,-0.04 -2.67,4.15 -9.21,2.3 -9.21,-2.7l0.01 -108.27c0,-1.06 0.33,-2.12 1.03,-3.03 2.4,-3.16 11.15,-7.41 14.82,-9.26l0 84.98c0,3.75 3.72,5.36 7.23,4.45 15.94,-3.42 44.7,3.44 46.97,18.89 0.92,6.29 10.39,5.23 9.92,-1.09l0 -87.9c0,-2.75 -2.23,-4.98 -4.98,-4.98 -2.75,0 -4.98,2.23 -4.98,4.98l0 79.23c-11.42,-13.06 -33.83,-16.02 -49.59,-12.7l0 -98.99c-0.28,-5.11 6.93,-6.66 10.83,-7.24 16.77,-2.48 38.59,8.82 46.13,24.02 17.22,-10.96 57.75,-11.4 71.22,5.18 0.86,0.9 1.39,2.12 1.39,3.46zm-34.21 61.43c0,-6.04 -4.37,-10.29 -10.83,-10.29 -6.42,0 -10.83,4.25 -10.83,10.29 0,5.66 3.91,9.79 9.7,10.25l-6.33 9.21 7.67 0 8.92 -13.54c1.08,-1.63 1.7,-3.67 1.7,-5.92zm-6.66 0c0,2.58 -1.92,4.04 -4.17,4.04 -2.21,0 -4.17,-1.5 -4.17,-4.04 0,-2.54 1.96,-4.04 4.17,-4.04 2.25,0 4.17,1.45 4.17,4.04zm28.75 1.96l-6.67 0 0 -6.67 -5.83 0 0 6.67 -6.67 0 0 5.83 6.67 0 0 6.67 5.83 0 0 -6.67 6.67 0 0 -5.83z"/>
 </g>
</svg>
