<?xml version="1.0" encoding="UTF-8"?>
<!DOCTYPE svg PUBLIC "-//W3C//DTD SVG 1.1//EN" "http://www.w3.org/Graphics/SVG/1.1/DTD/svg11.dtd">
<!-- Creator: CorelDRAW -->
<svg xmlns="http://www.w3.org/2000/svg" xml:space="preserve" width="200px" height="200px" version="1.1" style="shape-rendering:geometricPrecision; text-rendering:geometricPrecision; image-rendering:optimizeQuality; fill-rule:evenodd; clip-rule:evenodd"
viewBox="0 0 200 200"
 xmlns:xlink="http://www.w3.org/1999/xlink"
 xmlns:xodm="http://www.corel.com/coreldraw/odm/2003">
 <defs>
  <style type="text/css">
   <![CDATA[
    .fil0 {fill:#373435;fill-rule:nonzero}
   ]]>
  </style>
 </defs>
 <g id="Layer_x0020_1">
  <metadata id="CorelCorpID_0Corel-Layer"/>
  <path class="fil0" d="M55.39 135.62l0.87 -0.14c13.42,-1.98 29.16,4.77 38.76,14.14l0 -89.28c-2.39,-14.38 -25.94,-26.6 -39.63,-22.76 0,32.68 0,65.36 0,98.04zm-9.96 -79.5c-3.6,1.13 -7.73,2.92 -10.43,5.6l0 96.21c13.84,-7.2 35.14,-7.77 50.17,-3.73 -7.89,-6.25 -22.7,-12.25 -32.51,-7.3 -3.28,1.63 -7.23,-0.69 -7.23,-4.45l0 -86.33zm56.96 -4.89c17.22,-10.96 57.75,-11.4 71.22,5.18 0.86,0.9 1.39,2.12 1.39,3.46l0 108.27c0,5 -6.54,6.85 -9.21,2.7 -10.09,-12.18 -51.62,-12.19 -61.63,0.06 -1.96,2.97 -6.36,2.98 -8.33,-0.02 -9.86,-12.03 -51.42,-12.36 -61.62,-0.04 -2.67,4.15 -9.21,2.3 -9.21,-2.7l0.01 -108.27c0,-1.06 0.33,-2.12 1.03,-3.03 4.51,-5.94 12.33,-9.27 19.39,-11.09l0 -11.3c-0.28,-5.11 6.93,-6.66 10.83,-7.24 16.77,-2.48 38.59,8.82 46.13,24.02zm2.59 10.51l0 96.26c16.18,-8.5 43.84,-8.49 60.02,-0.01l0 -96.27c-10.9,-10.62 -48.29,-11.45 -60.02,0.02zm18.98 49.27c6.46,0 10.83,4.25 10.83,10.29 0,2.25 -0.62,4.29 -1.71,5.92l-8.91 13.54 -7.67 0 6.33 -9.21c-5.79,-0.46 -9.71,-4.59 -9.71,-10.25 0,-6.04 4.42,-10.29 10.84,-10.29zm0 6.25c-2.21,0 -4.17,1.5 -4.17,4.04 0,2.54 1.96,4.04 4.17,4.04 2.25,0 4.16,-1.46 4.16,-4.04 0,-2.59 -1.91,-4.04 -4.16,-4.04zm20.41 -0.67l5.84 0 0 6.67 6.67 0 0 5.83 -6.67 0 0 6.67 -5.84 0 0 -6.67 -6.66 0 0 -5.83 6.66 0 0 -6.67z"/>
 </g>
</svg>
