<?xml version="1.0" encoding="UTF-8"?>
<!DOCTYPE svg PUBLIC "-//W3C//DTD SVG 1.1//EN" "http://www.w3.org/Graphics/SVG/1.1/DTD/svg11.dtd">
<!-- Creator: CorelDRAW -->
<svg xmlns="http://www.w3.org/2000/svg" xml:space="preserve" width="206px" height="206px" version="1.1" style="shape-rendering:geometricPrecision; text-rendering:geometricPrecision; image-rendering:optimizeQuality; fill-rule:evenodd; clip-rule:evenodd"
viewBox="0 0 206 206"
 xmlns:xlink="http://www.w3.org/1999/xlink"
 xmlns:xodm="http://www.corel.com/coreldraw/odm/2003">
 <defs>
  <style type="text/css">
   <![CDATA[
    .fil0 {fill:#373435;fill-rule:nonzero}
   ]]>
  </style>
 </defs>
 <g id="Layer_x0020_1">
  <metadata id="CorelCorpID_0Corel-Layer"/>
  <path class="fil0" d="M97 38c2.76,0 5,2.24 5,5 0,2.76 -2.24,5 -5,5l-54 0c-2.77,0 -5,2.23 -5,5l0 100c0,2.77 2.23,5 5,5l120 0c2.77,0 5,-2.23 5,-5l0 -34c0,-2.76 2.24,-5 5,-5 2.76,0 5,2.24 5,5l0 34c0,8.25 -6.75,15 -15,15l-120 0c-8.24,0 -15,-6.75 -15,-15l0 -100c0,-8.25 6.76,-15 15,-15l54 0zm23.5 10c-2.76,0 -5,-2.24 -5,-5 0,-2.76 2.24,-5 5,-5l47.5 0c5.52,0 10,4.48 10,10l0 47.5c0,2.76 -2.24,5 -5,5 -2.76,0 -5,-2.24 -5,-5l0 -41.65 -79.26 67.94c-2.09,1.79 -5.24,1.54 -7.03,-0.55 -1.79,-2.09 -1.54,-5.24 0.55,-7.03l77.24 -66.21 -39 0z"/>
 </g>
</svg>
