<?xml version="1.0" encoding="UTF-8"?>
<!DOCTYPE svg PUBLIC "-//W3C//DTD SVG 1.1//EN" "http://www.w3.org/Graphics/SVG/1.1/DTD/svg11.dtd">
<!-- Creator: CorelDRAW -->
<svg xmlns="http://www.w3.org/2000/svg" xml:space="preserve" width="206px" height="206px" version="1.1" style="shape-rendering:geometricPrecision; text-rendering:geometricPrecision; image-rendering:optimizeQuality; fill-rule:evenodd; clip-rule:evenodd"
viewBox="0 0 206 206"
 xmlns:xlink="http://www.w3.org/1999/xlink"
 xmlns:xodm="http://www.corel.com/coreldraw/odm/2003">
 <defs>
  <style type="text/css">
   <![CDATA[
    .fil0 {fill:#373435;fill-rule:nonzero}
   ]]>
  </style>
 </defs>
 <g id="Layer_x0020_1">
  <metadata id="CorelCorpID_0Corel-Layer"/>
  <path class="fil0" d="M115.34 117.43c2.76,0 5,2.24 5,5.01 0,2.76 -2.24,5 -5,5l-72.34 0c-8.24,0 -15,-6.77 -15,-15l0 -30.01c0,-8.24 6.76,-15 15,-15l120 0c8.25,0 15,6.75 15,15 0,2.77 -2.24,5.01 -5,5.01 -2.76,0 -5,-2.24 -5,-5.01 0,-2.62 -2.31,-4.99 -5,-4.99l-120 0c-2.77,0 -5,2.22 -5,4.99l0 30.01c0,2.77 2.23,4.99 5,4.99l72.34 0zm15 -11.13l6.92 0 0 -6.25c0,-7.96 6.45,-14.41 14.41,-14.41 7.95,0 14.42,6.47 14.42,14.41l0 6.25 6.91 0c2.07,0 3.75,1.68 3.75,3.75l0 24.77c0,2.07 -1.68,3.75 -3.75,3.75l-42.66 0c-2.07,0 -3.75,-1.68 -3.75,-3.75l0 -24.77c0,-2.07 1.68,-3.75 3.75,-3.75zm14.42 0l13.83 0 0 -6.25c0,-3.82 -3.09,-6.91 -6.92,-6.91 -3.82,0 -6.91,3.09 -6.91,6.91l0 6.25zm24.49 7.5l-35.16 0 0 17.27 35.16 0 0 -17.27z"/>
 </g>
</svg>
