<?xml version="1.0" encoding="UTF-8"?>
<!DOCTYPE svg PUBLIC "-//W3C//DTD SVG 1.1//EN" "http://www.w3.org/Graphics/SVG/1.1/DTD/svg11.dtd">
<!-- Creator: CorelDRAW -->
<svg xmlns="http://www.w3.org/2000/svg" xml:space="preserve" width="206px" height="206px" version="1.1" style="shape-rendering:geometricPrecision; text-rendering:geometricPrecision; image-rendering:optimizeQuality; fill-rule:evenodd; clip-rule:evenodd"
viewBox="0 0 206 206"
 xmlns:xlink="http://www.w3.org/1999/xlink"
 xmlns:xodm="http://www.corel.com/coreldraw/odm/2003">
 <defs>
  <style type="text/css">
   <![CDATA[
    .fil0 {fill:#373435;fill-rule:nonzero}
   ]]>
  </style>
 </defs>
 <g id="Layer_x0020_1">
  <metadata id="CorelCorpID_0Corel-Layer"/>
  <path class="fil0" d="M130.34 106.3l6.92 0 0 -6.25c0,-7.96 6.45,-14.41 14.41,-14.41 7.95,0 14.42,6.47 14.42,14.41l0 6.25 6.91 0c2.07,0 3.75,1.68 3.75,3.75l0 24.77c0,2.07 -1.68,3.75 -3.75,3.75l-42.66 0c-2.07,0 -3.75,-1.68 -3.75,-3.75l0 -24.77c0,-2.07 1.68,-3.75 3.75,-3.75zm14.42 0l13.83 0 0 -6.25c0,-3.82 -3.09,-6.91 -6.92,-6.91 -3.82,0 -6.91,3.09 -6.91,6.91l0 6.25zm-29.42 11.13c2.76,0 5,2.24 5,5.01 0,2.76 -2.24,5 -5,5l-72.34 0c-8.24,0 -15,-6.77 -15,-15l0 -30.01c0,-8.24 6.76,-15 15,-15l120 0c8.25,0 15,6.75 15,15 0,2.77 -2.24,5.01 -5,5.01 -2.76,0 -5,-2.24 -5,-5.01 0,-2.76 -2.24,-4.99 -5,-4.99l-120 0c-2.77,0 -5,2.22 -5,4.99l0 30.01c0,2.77 2.23,4.99 5,4.99l72.34 0zm-67.34 -34.99c-2.76,0 -5,2.24 -5,5l0 19.99c0,2.76 2.24,5 5,5l67.34 0c2.76,0 5,-2.24 5,-5l0 -19.99c0,-2.76 -2.24,-5 -5,-5l-67.34 0zm5.29 14.52l1.17 -3.62c2.72,0.95 4.68,1.78 5.91,2.48 -0.32,-3.09 -0.49,-5.21 -0.51,-6.37l3.73 0c-0.05,1.69 -0.25,3.8 -0.6,6.34 1.76,-0.88 3.78,-1.71 6.05,-2.45l1.17 3.62c-2.16,0.72 -4.28,1.2 -6.37,1.44 1.05,0.9 2.51,2.52 4.4,4.85l-3.07 2.18c-0.98,-1.35 -2.16,-3.19 -3.51,-5.51 -1.27,2.41 -2.38,4.24 -3.33,5.51l-3.02 -2.18c1.97,-2.45 3.39,-4.06 4.24,-4.85 -2.2,-0.43 -4.28,-0.91 -6.26,-1.44zm22.5 0l1.17 -3.62c2.72,0.95 4.68,1.78 5.92,2.48 -0.33,-3.09 -0.5,-5.21 -0.52,-6.37l3.73 0c-0.05,1.69 -0.24,3.8 -0.59,6.34 1.76,-0.88 3.77,-1.71 6.04,-2.45l1.17 3.62c-2.16,0.72 -4.28,1.2 -6.36,1.44 1.04,0.9 2.5,2.52 4.39,4.85l-3.06 2.18c-0.99,-1.35 -2.17,-3.19 -3.52,-5.51 -1.27,2.41 -2.38,4.24 -3.33,5.51l-3.02 -2.18c1.97,-2.45 3.39,-4.06 4.24,-4.85 -2.2,-0.43 -4.28,-0.91 -6.26,-1.44z"/>
 </g>
</svg>
