<?xml version="1.0" encoding="UTF-8"?>
<!DOCTYPE svg PUBLIC "-//W3C//DTD SVG 1.1//EN" "http://www.w3.org/Graphics/SVG/1.1/DTD/svg11.dtd">
<!-- Creator: CorelDRAW -->
<svg xmlns="http://www.w3.org/2000/svg" xml:space="preserve" width="206px" height="206px" version="1.1" style="shape-rendering:geometricPrecision; text-rendering:geometricPrecision; image-rendering:optimizeQuality; fill-rule:evenodd; clip-rule:evenodd"
viewBox="0 0 206 206"
 xmlns:xlink="http://www.w3.org/1999/xlink"
 xmlns:xodm="http://www.corel.com/coreldraw/odm/2003">
 <defs>
  <style type="text/css">
   <![CDATA[
    .fil0 {fill:#373435;fill-rule:nonzero}
   ]]>
  </style>
 </defs>
 <g id="Layer_x0020_1">
  <metadata id="CorelCorpID_0Corel-Layer"/>
  <path class="fil0" d="M163.91 147.17c1.11,-1.17 1.54,-2.51 1.34,-4.1l-2.52 -20.27c-8.19,-1.59 -20.55,-3.17 -28.05,-5.42l-2.41 4.37c-3.9,7.05 -12.63,9.75 -19.83,6.15 -12.13,-6.07 -23.37,-13.63 -33.55,-22.59 -5.96,-5.24 -6.79,-14.25 -1.9,-20.49l3 -3.8c-2.13,-1.92 -13.32,-19.78 -15.97,-23.72 -2.61,1.39 -15.33,4.38 -19.68,5.62 -1.53,0.44 -2.58,1.36 -3.21,2.83 -0.64,1.49 -0.61,2.86 0.14,4.3 6.93,13.29 15.9,25.46 26.49,36.05 13.32,13.32 29.15,24.09 46.7,31.51 14.46,6.12 29.77,9.83 45.43,11.07 1.57,0.12 2.93,-0.37 4.02,-1.51zm7.21 6.87c-3.22,3.35 -7.37,4.97 -12.01,4.6 -16.68,-1.32 -33.11,-5.33 -48.52,-11.85 -18.81,-7.95 -35.72,-19.44 -49.9,-33.62 -11.3,-11.3 -20.86,-24.34 -28.25,-38.51 -2.12,-4.07 -2.31,-8.63 -0.49,-12.85 1.82,-4.24 5.23,-7.24 9.66,-8.5l19.66 -5.61c4.2,-1.2 8.58,0.42 11.02,4.04l15.95 23.71c2.43,3.6 2.26,8.29 -0.42,11.71l-2.97 3.79c-1.66,2.11 -1.37,5.09 0.64,6.86 9.48,8.35 20.1,15.53 31.41,21.19 2.39,1.19 5.32,0.28 6.62,-2.06l2.41 -4.37c2.11,-3.8 6.37,-5.81 10.64,-4.99l28.05 5.41c4.27,0.83 7.5,4.27 8.04,8.59l2.51 20.27c0.57,4.58 -0.85,8.87 -4.05,12.19z"/>
 </g>
</svg>
