<?xml version="1.0" encoding="UTF-8"?>
<!DOCTYPE svg PUBLIC "-//W3C//DTD SVG 1.1//EN" "http://www.w3.org/Graphics/SVG/1.1/DTD/svg11.dtd">
<!-- Creator: CorelDRAW -->
<svg xmlns="http://www.w3.org/2000/svg" xml:space="preserve" width="206px" height="206px" version="1.1" style="shape-rendering:geometricPrecision; text-rendering:geometricPrecision; image-rendering:optimizeQuality; fill-rule:evenodd; clip-rule:evenodd"
viewBox="0 0 206 206"
 xmlns:xlink="http://www.w3.org/1999/xlink"
 xmlns:xodm="http://www.corel.com/coreldraw/odm/2003">
 <defs>
  <style type="text/css">
   <![CDATA[
    .fil0 {fill:#373435;fill-rule:nonzero}
   ]]>
  </style>
 </defs>
 <g id="Layer_x0020_1">
  <metadata id="CorelCorpID_0Corel-Layer"/>
  <path class="fil0" d="M43 142.57c-8.24,0 -15,-6.76 -15,-15l0 -67.8c0,-8.25 6.76,-15 15,-15l120 0c8.24,0 15,6.75 15,15l0 91.45c0,8.26 -9.59,13.07 -16.21,7.82l-19.42 -15.4 -3.11 -1.07 -96.26 0zm48.23 -22.1l35.03 0c2.45,0 4.52,-1.75 4.93,-4.16l3.85 -22.47 0 -3.87c0,-2.76 -2.25,-5 -5,-5l-19.01 0 2.99 -12.3c0.6,-2.49 -0.74,-5 -3.14,-5.88l-0.29 -0.1c-2.03,-0.75 -4.21,-0.15 -5.58,1.52l-13.78 16.76 0 35.5zm-10 0l0 -35.5 -4.93 0c-2.75,0 -5,2.24 -5,5l0 20.5c0,5.48 4.47,9.96 9.93,10z"/>
 </g>
</svg>
