<?xml version="1.0" encoding="UTF-8"?>
<!DOCTYPE svg PUBLIC "-//W3C//DTD SVG 1.1//EN" "http://www.w3.org/Graphics/SVG/1.1/DTD/svg11.dtd">
<!-- Creator: CorelDRAW -->
<svg xmlns="http://www.w3.org/2000/svg" xml:space="preserve" width="206px" height="206px" version="1.1" style="shape-rendering:geometricPrecision; text-rendering:geometricPrecision; image-rendering:optimizeQuality; fill-rule:evenodd; clip-rule:evenodd"
viewBox="0 0 206 206"
 xmlns:xlink="http://www.w3.org/1999/xlink"
 xmlns:xodm="http://www.corel.com/coreldraw/odm/2003">
 <defs>
  <style type="text/css">
   <![CDATA[
    .fil0 {fill:#373435;fill-rule:nonzero}
   ]]>
  </style>
 </defs>
 <g id="Layer_x0020_1">
  <metadata id="CorelCorpID_0Corel-Layer"/>
  <path class="fil0" d="M139.26 142.57l-96.26 0c-8.24,0 -15,-6.76 -15,-15l0 -67.8c0,-8.25 6.76,-15 15,-15l120 0c8.24,0 15,6.75 15,15l0 91.45c0,8.26 -9.59,13.07 -16.21,7.82l-19.42 -15.4 -3.11 -1.07zm0 -10c1.71,0 3.35,0.27 4.94,0.83 5.37,1.86 23.31,18.19 23.83,17.82l-0.03 -91.45c0,-2.77 -2.23,-5 -5,-5l-120 0c-2.77,0 -5,2.23 -5,5l0 67.8c0,2.77 2.23,5 5,5l96.26 0zm-13 -7.09l-44.96 0c-8.25,0 -15,-6.75 -15,-15l0 -20.5c0,-5.51 4.49,-10 10,-10l12.59 0 12.27 -14.92c6.73,-8.19 20.24,-1.7 17.7,8.79l-1.49 6.13 12.67 0c5.5,0 10,4.51 10,10l0 3.88c0,0.38 -0.05,0.76 -0.13,1.11l-3.8 22.2c-0.81,4.78 -5,8.31 -9.85,8.31zm0 -10l3.78 -22.01 0 -3.48 -19.01 -0.01 0 -0.01c-0.39,0 -0.78,-0.05 -1.17,-0.14 -2.68,-0.65 -4.32,-3.35 -3.67,-6.02l2.98 -12.32 -0.31 -0.11 -14.54 17.54 0 26.56 31.94 0zm-44.96 0l3.02 0 0 -25.5 -8.02 0 0 20.5c0,2.76 2.25,5 5,5z"/>
 </g>
</svg>
