<?xml version="1.0" encoding="UTF-8"?>
<!DOCTYPE svg PUBLIC "-//W3C//DTD SVG 1.1//EN" "http://www.w3.org/Graphics/SVG/1.1/DTD/svg11.dtd">
<!-- Creator: CorelDRAW -->
<svg xmlns="http://www.w3.org/2000/svg" xml:space="preserve" width="200px" height="200px" version="1.1" style="shape-rendering:geometricPrecision; text-rendering:geometricPrecision; image-rendering:optimizeQuality; fill-rule:evenodd; clip-rule:evenodd"
viewBox="0 0 200 200"
 xmlns:xlink="http://www.w3.org/1999/xlink"
 xmlns:xodm="http://www.corel.com/coreldraw/odm/2003">
 <defs>
  <style type="text/css">
   <![CDATA[
    .fil0 {fill:#373435;fill-rule:nonzero}
   ]]>
  </style>
 </defs>
 <g id="Layer_x0020_1">
  <metadata id="CorelCorpID_0Corel-Layer"/>
  <path class="fil0" d="M100 25c41.42,0 75,33.58 75,75 0,41.42 -33.58,75 -75,75 -41.42,0 -75,-33.58 -75,-75 0,-41.42 33.58,-75 75,-75zm60 75c0,-33.14 -26.86,-60 -60,-60 -33.14,0 -60,26.86 -60,60 0,33.14 26.86,60 60,60 33.14,0 60,-26.86 60,-60zm-90 7.5c-4.14,0 -7.5,-3.36 -7.5,-7.5 0,-4.14 3.36,-7.5 7.5,-7.5l60 0c4.15,0 7.5,3.36 7.5,7.5 0,4.14 -3.35,7.5 -7.5,7.5l-60 0z"/>
 </g>
</svg>
