<?xml version="1.0" encoding="UTF-8"?>
<!DOCTYPE svg PUBLIC "-//W3C//DTD SVG 1.1//EN" "http://www.w3.org/Graphics/SVG/1.1/DTD/svg11.dtd">
<!-- Creator: CorelDRAW -->
<svg xmlns="http://www.w3.org/2000/svg" xml:space="preserve" width="206px" height="206px" version="1.1" style="shape-rendering:geometricPrecision; text-rendering:geometricPrecision; image-rendering:optimizeQuality; fill-rule:evenodd; clip-rule:evenodd"
viewBox="0 0 206 206"
 xmlns:xlink="http://www.w3.org/1999/xlink"
 xmlns:xodm="http://www.corel.com/coreldraw/odm/2003">
 <defs>
  <style type="text/css">
   <![CDATA[
    .fil0 {fill:#373435;fill-rule:nonzero}
   ]]>
  </style>
 </defs>
 <g id="Layer_x0020_1">
  <metadata id="CorelCorpID_0Corel-Layer"/>
  <path class="fil0" d="M142.37 143.64l-3.11 -1.07 -96.26 0c-8.24,0 -15,-6.76 -15,-15l0 -67.8c0,-8.25 6.76,-15 15,-15l120 0c8.24,0 15,6.75 15,15l0 91.45c0,8.26 -9.59,13.07 -16.21,7.82l-19.42 -15.4zm1.83 -10.24c5.37,1.86 23.31,18.19 23.83,17.82l-0.03 -91.45c0,-2.77 -2.23,-5 -5,-5l-120 0c-2.77,0 -5,2.23 -5,5l0 67.8c0,2.77 2.23,5 5,5l96.26 0c1.71,0 3.35,0.27 4.94,0.83zm23.83 17.81c0.01,-0.01 0,0 0,0zm-61.3 -85.68c6.66,20.63 2.91,17.86 24.57,17.84 3.61,0 5.1,4.65 2.19,6.76 -17.56,12.74 -16.1,8.27 -9.37,28.88 1.1,3.39 -2.84,6.5 -5.99,4.01 -2.82,-2.22 -11.63,-9.43 -14.96,-9.43 -6.22,0 -16,14.82 -20.4,8.78 -3.61,-4.96 9.35,-18.29 1.6,-23.89 -7.18,-5.2 -15.57,-9.13 -12.35,-13.57 3.58,-4.94 20.3,3.23 23.23,-5.84 2.72,-8.45 3.87,-17.62 9.07,-15.95 1.19,0.38 2.06,1.3 2.41,2.41zm-2.75 15.82l-0.81 -2.5c-3,9.32 -6.76,12.03 -16.54,12.02 7.93,5.73 9.36,10.17 6.32,19.46 7.93,-5.78 12.52,-5.78 20.45,0 -3.04,-9.29 -1.61,-13.73 6.32,-19.46 -6.98,0.01 -13.18,-1.59 -15.74,-9.52z"/>
 </g>
</svg>
