<?xml version="1.0" encoding="UTF-8"?>
<!DOCTYPE svg PUBLIC "-//W3C//DTD SVG 1.1//EN" "http://www.w3.org/Graphics/SVG/1.1/DTD/svg11.dtd">
<!-- Creator: CorelDRAW -->
<svg xmlns="http://www.w3.org/2000/svg" xml:space="preserve" width="206px" height="206px" version="1.1" style="shape-rendering:geometricPrecision; text-rendering:geometricPrecision; image-rendering:optimizeQuality; fill-rule:evenodd; clip-rule:evenodd"
viewBox="0 0 206 206"
 xmlns:xlink="http://www.w3.org/1999/xlink"
 xmlns:xodm="http://www.corel.com/coreldraw/odm/2003">
 <defs>
  <style type="text/css">
   <![CDATA[
    .fil0 {fill:#373435;fill-rule:nonzero}
   ]]>
  </style>
 </defs>
 <g id="Layer_x0020_1">
  <metadata id="CorelCorpID_0Corel-Layer"/>
  <path class="fil0" d="M142.37 143.64l-3.11 -1.07 -96.26 0c-8.24,0 -15,-6.76 -15,-15l0 -67.8c0,-8.25 6.76,-15 15,-15l120 0c8.24,0 15,6.75 15,15l0 91.45c0,8.26 -9.59,13.07 -16.21,7.82l-19.42 -15.4zm-35.64 -78.11c-0.35,-1.11 -1.22,-2.03 -2.41,-2.41 -5.2,-1.67 -6.35,7.5 -9.07,15.95 -2.93,9.07 -19.65,0.9 -23.23,5.84 -3.22,4.44 5.17,8.37 12.35,13.57 7.75,5.6 -5.21,18.93 -1.6,23.89 4.4,6.04 14.18,-8.78 20.4,-8.78 3.33,0 12.14,7.21 14.96,9.43 3.15,2.49 7.09,-0.62 5.99,-4.01 -6.73,-20.61 -8.19,-16.14 9.37,-28.88 2.91,-2.11 1.42,-6.76 -2.19,-6.76 -21.66,0.02 -17.91,2.79 -24.57,-17.84z"/>
 </g>
</svg>
