<?xml version="1.0" encoding="UTF-8"?>
<!DOCTYPE svg PUBLIC "-//W3C//DTD SVG 1.1//EN" "http://www.w3.org/Graphics/SVG/1.1/DTD/svg11.dtd">
<!-- Creator: CorelDRAW -->
<svg xmlns="http://www.w3.org/2000/svg" xml:space="preserve" width="200px" height="200px" version="1.1" style="shape-rendering:geometricPrecision; text-rendering:geometricPrecision; image-rendering:optimizeQuality; fill-rule:evenodd; clip-rule:evenodd"
viewBox="0 0 200 200"
 xmlns:xlink="http://www.w3.org/1999/xlink"
 xmlns:xodm="http://www.corel.com/coreldraw/odm/2003">
 <defs>
  <style type="text/css">
   <![CDATA[
    .fil0 {fill:#373435;fill-rule:nonzero}
   ]]>
  </style>
 </defs>
 <g id="Layer_x0020_1">
  <metadata id="CorelCorpID_0Corel-Layer"/>
  <path class="fil0" d="M70.94 38.39l0 25.85c0,3.2 1.3,6.09 3.41,8.21 2.12,2.12 5.02,3.41 8.21,3.41l34.88 0c3.2,0 6.11,-1.31 8.21,-3.41 2.1,-2.1 3.41,-5.01 3.41,-8.21l0 -25.39c1.3,0.27 2.57,0.66 3.8,1.17l0.44 0.2c2.46,1.09 4.67,2.61 6.61,4.55l22.02 22.02c4.15,4.15 6.38,9.53 6.38,15.4l0 71.04c0,11.96 -9.82,21.77 -21.78,21.77l-93.06 0c-11.96,0 -21.78,-9.81 -21.78,-21.77l0 -93.07c0,-11.96 9.82,-21.77 21.78,-21.77l17.47 0zm46.5 -13.39l-34.88 0c-2.4,0 -4.36,1.96 -4.36,4.36l0 34.88c0,2.43 1.94,4.36 4.36,4.36l34.88 0c2.39,0 4.36,-1.97 4.36,-4.36l0 -34.88c0,-2.4 -1.96,-4.36 -4.36,-4.36zm-17.44 65.42c-11.71,0 -21.27,9.56 -21.27,21.28 0,11.74 9.52,21.27 21.27,21.27 11.75,0 21.27,-9.53 21.27,-21.27 0,-11.75 -9.52,-21.28 -21.27,-21.28z"/>
 </g>
</svg>
