<?xml version="1.0" encoding="UTF-8"?>
<!DOCTYPE svg PUBLIC "-//W3C//DTD SVG 1.1//EN" "http://www.w3.org/Graphics/SVG/1.1/DTD/svg11.dtd">
<!-- Creator: CorelDRAW -->
<svg xmlns="http://www.w3.org/2000/svg" xml:space="preserve" width="200px" height="200px" version="1.1" style="shape-rendering:geometricPrecision; text-rendering:geometricPrecision; image-rendering:optimizeQuality; fill-rule:evenodd; clip-rule:evenodd"
viewBox="0 0 200 200"
 xmlns:xlink="http://www.w3.org/1999/xlink"
 xmlns:xodm="http://www.corel.com/coreldraw/odm/2003">
 <defs>
  <style type="text/css">
   <![CDATA[
    .fil0 {fill:#373435;fill-rule:nonzero}
   ]]>
  </style>
 </defs>
 <g id="Layer_x0020_1">
  <metadata id="CorelCorpID_0Corel-Layer"/>
  <path class="fil0" d="M137.97 43.21l25.75 25.73c2.83,2.83 4.36,6.54 4.36,10.54l0 80.61c0,8.2 -6.71,14.91 -14.91,14.91l-106.34 0c-8.22,0 -14.91,-6.69 -14.91,-14.91l0 -106.34c0,-8.21 6.71,-14.91 14.91,-14.91l25.64 0 0 -4.34c0,-5.22 4.29,-9.5 9.51,-9.5l36.04 0c5.22,0 9.51,4.29 9.51,9.5l0 4.34c3.99,0.02 7.61,1.56 10.44,4.37zm-7.05 7.06c-0.98,-0.99 -2,-1.42 -3.39,-1.43l0 21.71c0,5.23 -4.28,9.51 -9.51,9.51l-36.04 0c-5.24,0 -9.51,-4.27 -9.51,-9.51l0 -21.71 -25.64 0c-2.7,0 -4.91,2.21 -4.91,4.91l0 106.34c0,2.7 2.21,4.91 4.91,4.91l106.34 0c2.71,0 4.91,-2.2 4.91,-4.91l0 -80.61c0,-1.45 -0.41,-2.44 -1.44,-3.47l-25.72 -25.74zm-13.39 -15.27l-35.06 0 0 35.06 35.06 0 0 -35.06zm-17.53 57.44c10.76,0 19.48,8.72 19.48,19.48 0,10.76 -8.72,19.48 -19.48,19.48 -10.76,0 -19.48,-8.72 -19.48,-19.48 0,-10.74 8.75,-19.48 19.48,-19.48zm0 10c-5.26,0 -9.48,4.22 -9.48,9.48 0,5.24 4.24,9.48 9.48,9.48 5.24,0 9.48,-4.24 9.48,-9.48 0,-5.24 -4.24,-9.48 -9.48,-9.48z"/>
 </g>
</svg>
