<?xml version="1.0" encoding="UTF-8"?>
<!DOCTYPE svg PUBLIC "-//W3C//DTD SVG 1.1//EN" "http://www.w3.org/Graphics/SVG/1.1/DTD/svg11.dtd">
<!-- Creator: CorelDRAW -->
<svg xmlns="http://www.w3.org/2000/svg" xml:space="preserve" width="200px" height="200px" version="1.1" style="shape-rendering:geometricPrecision; text-rendering:geometricPrecision; image-rendering:optimizeQuality; fill-rule:evenodd; clip-rule:evenodd"
viewBox="0 0 200 200"
 xmlns:xlink="http://www.w3.org/1999/xlink"
 xmlns:xodm="http://www.corel.com/coreldraw/odm/2003">
 <defs>
  <style type="text/css">
   <![CDATA[
    .fil0 {fill:#373435;fill-rule:nonzero}
   ]]>
  </style>
 </defs>
 <g id="Layer_x0020_1">
  <metadata id="CorelCorpID_0Corel-Layer"/>
  <path class="fil0" d="M100 90.42c11.75,0 21.27,9.53 21.27,21.28 0,11.74 -9.52,21.27 -21.27,21.27 -11.75,0 -21.27,-9.53 -21.27,-21.27 0,-11.72 9.56,-21.28 21.27,-21.28zm0 14.52c-3.76,0 -6.76,2.99 -6.76,6.76 0,3.73 3.03,6.75 6.76,6.75 3.73,0 6.76,-3.02 6.76,-6.75 0,-3.74 -3.03,-6.76 -6.76,-6.76zm-17.44 -79.94l34.88 0c6.37,0 11.62,5.25 11.62,11.62l0 2.23c1.3,0.27 2.57,0.66 3.8,1.17l0.44 0.2c2.46,1.09 4.67,2.61 6.61,4.55l22.02 22.02c4.15,4.15 6.38,9.53 6.38,15.4l0 71.04c0,11.96 -9.82,21.77 -21.78,21.77l-93.06 0c-11.96,0 -21.78,-9.81 -21.78,-21.77l0 -93.07c0,-11.96 9.82,-21.77 21.78,-21.77l17.47 0 0 -1.77c0,-6.4 5.23,-11.62 11.62,-11.62zm31.99 14.52l-29.09 0 0 29.08 29.09 0 0 -29.08zm14.51 14.98l0 17c0,6.39 -5.23,11.62 -11.62,11.62l-34.88 0c-6.41,0 -11.62,-5.21 -11.62,-11.62l0 -18.59 -17.47 0c-4.03,0 -7.26,3.23 -7.26,7.25l0 93.07c0,4.02 3.23,7.25 7.26,7.25l93.06 0c4.03,0 7.26,-3.23 7.26,-7.25l0 -71.04c0,-2.12 -0.62,-3.63 -2.12,-5.14l-22.03 -22.02 -0.58 -0.53z"/>
 </g>
</svg>
