<?xml version="1.0" encoding="UTF-8"?>
<!DOCTYPE svg PUBLIC "-//W3C//DTD SVG 1.1//EN" "http://www.w3.org/Graphics/SVG/1.1/DTD/svg11.dtd">
<!-- Creator: CorelDRAW -->
<svg xmlns="http://www.w3.org/2000/svg" xml:space="preserve" width="200px" height="200px" version="1.1" style="shape-rendering:geometricPrecision; text-rendering:geometricPrecision; image-rendering:optimizeQuality; fill-rule:evenodd; clip-rule:evenodd"
viewBox="0 0 200 200"
 xmlns:xlink="http://www.w3.org/1999/xlink"
 xmlns:xodm="http://www.corel.com/coreldraw/odm/2003">
 <defs>
  <style type="text/css">
   <![CDATA[
    .fil0 {fill:#373435;fill-rule:nonzero}
   ]]>
  </style>
 </defs>
 <g id="Layer_x0020_1">
  <metadata id="CorelCorpID_0Corel-Layer"/>
  <path class="fil0" d="M72.47 38.84l-25.64 0c-8.2,0 -14.91,6.7 -14.91,14.91l0 106.34c0,8.22 6.69,14.91 14.91,14.91l106.34 0c8.2,0 14.91,-6.71 14.91,-14.91l0 -80.61c0,-4 -1.53,-7.71 -4.36,-10.54l-25.75 -25.73c-2.83,-2.81 -6.45,-4.35 -10.44,-4.37l0 26.71c0,5.23 -4.28,9.51 -9.51,9.51l-36.04 0c-5.24,0 -9.51,-4.27 -9.51,-9.51l0 -26.71zm27.53 53.6c10.76,0 19.48,8.72 19.48,19.48 0,10.76 -8.72,19.48 -19.48,19.48 -10.76,0 -19.48,-8.72 -19.48,-19.48 0,-10.74 8.75,-19.48 19.48,-19.48zm18.02 -67.44l-36.04 0c-2.48,0 -4.51,2.03 -4.51,4.51l0 36.04c0,2.51 2,4.51 4.51,4.51l36.04 0c2.47,0 4.51,-2.04 4.51,-4.51l0 -36.04c0,-2.48 -2.03,-4.51 -4.51,-4.51z"/>
 </g>
</svg>
