<?xml version="1.0" encoding="UTF-8"?>
<!DOCTYPE svg PUBLIC "-//W3C//DTD SVG 1.1//EN" "http://www.w3.org/Graphics/SVG/1.1/DTD/svg11.dtd">
<!-- Creator: CorelDRAW -->
<svg xmlns="http://www.w3.org/2000/svg" xml:space="preserve" width="200px" height="200px" version="1.1" style="shape-rendering:geometricPrecision; text-rendering:geometricPrecision; image-rendering:optimizeQuality; fill-rule:evenodd; clip-rule:evenodd"
viewBox="0 0 200 200"
 xmlns:xlink="http://www.w3.org/1999/xlink"
 xmlns:xodm="http://www.corel.com/coreldraw/odm/2003">
 <defs>
  <style type="text/css">
   <![CDATA[
    .fil0 {fill:#373435;fill-rule:nonzero}
   ]]>
  </style>
 </defs>
 <g id="Layer_x0020_1">
  <metadata id="CorelCorpID_0Corel-Layer"/>
  <path class="fil0" d="M126.7 119.63l46.84 46.84c1.95,1.95 1.95,5.11 0,7.07 -1.96,1.95 -5.12,1.95 -7.07,0l-46.84 -46.84c-10.68,8.99 -23.86,13.49 -37.03,13.49 -31.81,0 -57.6,-25.79 -57.6,-57.59 0,-31.81 25.79,-57.6 57.6,-57.6 31.8,0 57.59,25.79 57.59,57.6 0,13.17 -4.5,26.35 -13.49,37.03zm-44.1 -84.63c-26.29,0 -47.6,21.31 -47.6,47.6 0,26.28 21.31,47.59 47.6,47.59 26.28,0 47.59,-21.31 47.59,-47.59 0,-26.29 -21.31,-47.6 -47.59,-47.6z"/>
 </g>
</svg>
