<?xml version="1.0" encoding="UTF-8"?>
<!DOCTYPE svg PUBLIC "-//W3C//DTD SVG 1.1//EN" "http://www.w3.org/Graphics/SVG/1.1/DTD/svg11.dtd">
<!-- Creator: CorelDRAW -->
<svg xmlns="http://www.w3.org/2000/svg" xml:space="preserve" width="200px" height="200px" version="1.1" style="shape-rendering:geometricPrecision; text-rendering:geometricPrecision; image-rendering:optimizeQuality; fill-rule:evenodd; clip-rule:evenodd"
viewBox="0 0 200 200"
 xmlns:xlink="http://www.w3.org/1999/xlink"
 xmlns:xodm="http://www.corel.com/coreldraw/odm/2003">
 <defs>
  <style type="text/css">
   <![CDATA[
    .fil0 {fill:#373435;fill-rule:nonzero}
   ]]>
  </style>
 </defs>
 <g id="Layer_x0020_1">
  <metadata id="CorelCorpID_0Corel-Layer"/>
  <path class="fil0" d="M130.06 119.46l45.24 45.24c2.93,2.92 2.93,7.67 0,10.6 -2.93,2.93 -7.68,2.93 -10.6,0l-45.24 -45.24c-10.82,8.42 -23.84,12.63 -36.87,12.63 -33.19,0 -60.09,-26.91 -60.09,-60.1 0,-33.19 26.9,-60.09 60.09,-60.09 33.19,0 60.1,26.91 60.1,60.09 0,13.03 -4.21,26.05 -12.63,36.87zm-47.47 -81.96c-24.9,0 -45.09,20.19 -45.09,45.09 0,24.91 20.19,45.1 45.09,45.1 24.91,0 45.1,-20.19 45.1,-45.1 0,-24.9 -20.19,-45.09 -45.1,-45.09z"/>
 </g>
</svg>
