<?xml version="1.0" encoding="UTF-8"?>
<!DOCTYPE svg PUBLIC "-//W3C//DTD SVG 1.1//EN" "http://www.w3.org/Graphics/SVG/1.1/DTD/svg11.dtd">
<!-- Creator: CorelDRAW -->
<svg xmlns="http://www.w3.org/2000/svg" xml:space="preserve" width="200px" height="200px" version="1.1" style="shape-rendering:geometricPrecision; text-rendering:geometricPrecision; image-rendering:optimizeQuality; fill-rule:evenodd; clip-rule:evenodd"
viewBox="0 0 200 200"
 xmlns:xlink="http://www.w3.org/1999/xlink"
 xmlns:xodm="http://www.corel.com/coreldraw/odm/2003">
 <defs>
  <style type="text/css">
   <![CDATA[
    .fil0 {fill:#373435;fill-rule:nonzero}
   ]]>
  </style>
 </defs>
 <g id="Layer_x0020_1">
  <metadata id="CorelCorpID_0Corel-Layer"/>
  <path class="fil0" d="M169.14 60.57l-62.33 95.27c-6.76,10.33 -22.39,8.54 -26.63,-3.09l-15.62 -42.94c-0.12,-0.33 -0.26,-0.63 -0.43,-0.9 -0.16,-0.26 -0.36,-0.52 -0.61,-0.79l-31.11 -33.47c-8.41,-9.04 -2.89,-23.79 9.39,-25.11l113.2 -12.08c12.57,-1.34 21.06,12.53 14.14,23.11zm-70.69 89.8l61.74 -94.36 -85.56 52.33 14.92 41.01c1.42,3.88 6.62,4.51 8.9,1.02zm-58.73 -82.51l29.71 31.96 85.56 -52.33 -112.14 11.98c-4.13,0.43 -5.96,5.35 -3.13,8.39z"/>
 </g>
</svg>
