<?xml version="1.0" encoding="UTF-8"?>
<!DOCTYPE svg PUBLIC "-//W3C//DTD SVG 1.1//EN" "http://www.w3.org/Graphics/SVG/1.1/DTD/svg11.dtd">
<!-- Creator: CorelDRAW -->
<svg xmlns="http://www.w3.org/2000/svg" xml:space="preserve" width="206px" height="206px" version="1.1" style="shape-rendering:geometricPrecision; text-rendering:geometricPrecision; image-rendering:optimizeQuality; fill-rule:evenodd; clip-rule:evenodd"
viewBox="0 0 206 206"
 xmlns:xlink="http://www.w3.org/1999/xlink"
 xmlns:xodm="http://www.corel.com/coreldraw/odm/2003">
 <defs>
  <style type="text/css">
   <![CDATA[
    .fil0 {fill:#373435}
   ]]>
  </style>
 </defs>
 <g id="Layer_x0020_1">
  <metadata id="CorelCorpID_0Corel-Layer"/>
  <path class="fil0" d="M96.97 80.48c-12.44,3.33 -19.82,16.12 -16.49,28.55 3.33,12.44 16.12,19.82 28.55,16.49 12.44,-3.33 19.82,-16.12 16.49,-28.55 -3.33,-12.44 -16.12,-19.82 -28.55,-16.49zm-1.74 -32.49c5.22,-0.71 10.31,-0.73 15.53,0l10.17 -11.27c3.16,-3.51 8.34,-4.32 12.43,-1.96l13.57 7.84c4.09,2.36 5.96,7.22 4.5,11.71 -1.03,3.17 -4.3,11.81 -4.69,14.48 3.23,4.09 5.84,8.6 7.78,13.43l14.85 3.17c4.62,0.99 7.92,5.04 7.92,9.77l0 15.68c0,4.73 -3.3,8.78 -7.92,9.77l-14.84 3.17c-1.96,4.83 -4.56,9.33 -7.77,13.43 -0.02,0 4.23,13.12 4.67,14.48 1.46,4.5 -0.41,9.35 -4.5,11.71l-13.57 7.84c-4.1,2.36 -9.26,1.55 -12.43,-1.96l-10.16 -11.27c-5.22,0.71 -10.3,0.73 -15.53,0l-10.17 11.27c-3.16,3.51 -8.34,4.32 -12.43,1.96l-13.57 -7.84c-4.09,-2.36 -5.96,-7.21 -4.5,-11.71 1.03,-3.17 4.3,-11.81 4.69,-14.48 -3.23,-4.09 -5.83,-8.6 -7.79,-13.43l-14.84 -3.17c-4.62,-0.99 -7.92,-5.04 -7.92,-9.77l0 -15.68c0,-4.73 3.3,-8.78 7.92,-9.77l14.83 -3.16c2.18,-5 4.41,-9.13 7.79,-13.44l-4.68 -14.48c-1.46,-4.5 0.41,-9.35 4.5,-11.71l13.57 -7.84c4.1,-2.36 9.26,-1.55 12.43,1.96l10.16 11.27z"/>
 </g>
</svg>
