<?xml version="1.0" encoding="UTF-8"?>
<!DOCTYPE svg PUBLIC "-//W3C//DTD SVG 1.1//EN" "http://www.w3.org/Graphics/SVG/1.1/DTD/svg11.dtd">
<!-- Creator: CorelDRAW -->
<svg xmlns="http://www.w3.org/2000/svg" xml:space="preserve" width="206px" height="206px" version="1.1" style="shape-rendering:geometricPrecision; text-rendering:geometricPrecision; image-rendering:optimizeQuality; fill-rule:evenodd; clip-rule:evenodd"
viewBox="0 0 206 206"
 xmlns:xlink="http://www.w3.org/1999/xlink"
 xmlns:xodm="http://www.corel.com/coreldraw/odm/2003">
 <defs>
  <style type="text/css">
   <![CDATA[
    .fil0 {fill:#373435;fill-rule:nonzero}
   ]]>
  </style>
 </defs>
 <g id="Layer_x0020_1">
  <metadata id="CorelCorpID_0Corel-Layer"/>
  <path class="fil0" d="M54.57 151.69c1.03,-3.17 4.3,-11.81 4.69,-14.48 -3.23,-4.09 -5.83,-8.6 -7.79,-13.43l-14.84 -3.17c-4.62,-0.99 -7.92,-5.04 -7.92,-9.77l0 -15.68c0,-4.73 3.3,-8.78 7.92,-9.77l14.83 -3.16c2.18,-5 4.41,-9.13 7.79,-13.44l-4.68 -14.48c-1.46,-4.5 0.41,-9.35 4.5,-11.71l13.57 -7.84c4.1,-2.36 9.26,-1.55 12.43,1.96l10.16 11.27c5.22,-0.71 10.31,-0.73 15.53,0l10.17 -11.27c3.16,-3.51 8.34,-4.32 12.43,-1.96l13.57 7.84c4.09,2.36 5.96,7.22 4.5,11.71 -1.03,3.17 -4.3,11.81 -4.69,14.48 3.23,4.09 5.84,8.6 7.78,13.43l14.85 3.17c4.62,0.99 7.92,5.04 7.92,9.77l0 15.68c0,4.73 -3.3,8.78 -7.92,9.77l-14.84 3.17c-1.96,4.83 -4.56,9.33 -7.77,13.43 -0.02,0 4.23,13.12 4.67,14.48 1.46,4.5 -0.41,9.35 -4.5,11.71l-13.57 7.84c-4.1,2.36 -9.26,1.55 -12.43,-1.96l-10.16 -11.27c-5.22,0.71 -10.3,0.73 -15.53,0l-10.17 11.27c-3.16,3.51 -8.34,4.32 -12.43,1.96l-13.57 -7.84c-4.09,-2.36 -5.96,-7.21 -4.5,-11.71zm23.07 10.91l10.18 -11.27c2.27,-2.5 5.46,-3.67 8.79,-3.2 4.2,0.58 8.58,0.58 12.78,0 3.32,-0.47 6.55,0.71 8.8,3.2l10.16 11.27 13.59 -7.85 -4.68 -14.44c-1.05,-3.23 -0.45,-6.56 1.64,-9.23 2.62,-3.34 4.79,-7.09 6.37,-11.02 1.26,-3.13 3.9,-5.34 7.19,-6.05l14.83 -3.16 0 -15.69 -14.83 -3.17c-3.27,-0.7 -5.93,-2.92 -7.19,-6.04 -1.58,-3.93 -3.75,-7.69 -6.37,-11.03 -2.09,-2.67 -2.69,-6 -1.64,-9.23l4.68 -14.45 -13.58 -7.84 -10.18 11.27c-2.27,2.5 -5.46,3.67 -8.79,3.2 -4.2,-0.58 -8.58,-0.58 -12.78,0 -3.32,0.47 -6.55,-0.71 -8.8,-3.2l-10.16 -11.27 -13.59 7.84 4.68 14.47c1.04,3.23 0.45,6.54 -1.64,9.21 -2.57,3.28 -4.7,6.95 -6.33,10.92 -1.27,3.16 -3.89,5.44 -7.23,6.15l-14.83 3.16 0 15.69 14.83 3.17c3.29,0.71 5.93,2.92 7.19,6.05 1.58,3.93 3.75,7.68 6.37,11.02 2.09,2.67 2.69,6 1.64,9.23l-4.68 14.45 13.58 7.84zm-2.95 -59.6c-0.01,-15.63 12.69,-28.29 28.31,-28.31 15.63,-0.01 28.29,12.69 28.31,28.31 0.01,15.63 -12.69,28.29 -28.31,28.31 -15.63,0.01 -28.29,-12.69 -28.31,-28.31zm9.98 0c-0.01,10.13 8.21,18.32 18.33,18.33 10.13,0.01 18.32,-8.21 18.33,-18.33 0.01,-10.13 -8.21,-18.32 -18.33,-18.33 -10.13,-0.01 -18.32,8.21 -18.33,18.33z"/>
 </g>
</svg>
