<?xml version="1.0" encoding="UTF-8"?>
<!DOCTYPE svg PUBLIC "-//W3C//DTD SVG 1.1//EN" "http://www.w3.org/Graphics/SVG/1.1/DTD/svg11.dtd">
<!-- Creator: CorelDRAW -->
<svg xmlns="http://www.w3.org/2000/svg" xml:space="preserve" width="206px" height="206px" version="1.1" style="shape-rendering:geometricPrecision; text-rendering:geometricPrecision; image-rendering:optimizeQuality; fill-rule:evenodd; clip-rule:evenodd"
viewBox="0 0 206 206"
 xmlns:xlink="http://www.w3.org/1999/xlink"
 xmlns:xodm="http://www.corel.com/coreldraw/odm/2003">
 <defs>
  <style type="text/css">
   <![CDATA[
    .fil0 {fill:#373435;fill-rule:nonzero}
   ]]>
  </style>
 </defs>
 <g id="Layer_x0020_1">
  <metadata id="CorelCorpID_0Corel-Layer"/>
  <path class="fil0" d="M165.9 137.25c9.33,9.33 9.33,24.45 0,33.79 -0.15,0 -6.13,7 -16.9,7 -16.08,0 -27.61,-15.68 -22.81,-31.01l-50.87 -28.63c-0.44,0.53 -0.91,1.04 -1.4,1.53 -0.15,0 -6.13,7 -16.9,7 -20.43,0 -32.3,-24.72 -16.9,-40.79 9.29,-9.69 26.01,-9.42 35.2,1.53l50.87 -28.63c-7.38,-23.61 22.11,-41.6 39.71,-24.01 9.33,9.33 9.33,24.46 0,33.79 -0.15,0 -6.13,7 -16.9,7 -7.08,0 -13.49,-3.1 -17.9,-8.08l-51.09 28.76c1.21,4.25 1.21,8.82 0,13.07l51.09 28.76c9.74,-10.54 25.19,-10.7 34.8,-1.08z"/>
 </g>
</svg>
