<?xml version="1.0" encoding="UTF-8"?>
<!DOCTYPE svg PUBLIC "-//W3C//DTD SVG 1.1//EN" "http://www.w3.org/Graphics/SVG/1.1/DTD/svg11.dtd">
<!-- Creator: CorelDRAW -->
<svg xmlns="http://www.w3.org/2000/svg" xml:space="preserve" width="200px" height="200px" version="1.1" style="shape-rendering:geometricPrecision; text-rendering:geometricPrecision; image-rendering:optimizeQuality; fill-rule:evenodd; clip-rule:evenodd"
viewBox="0 0 200 200"
 xmlns:xlink="http://www.w3.org/1999/xlink"
 xmlns:xodm="http://www.corel.com/coreldraw/odm/2003">
 <defs>
  <style type="text/css">
   <![CDATA[
    .fil0 {fill:#373435;fill-rule:nonzero}
   ]]>
  </style>
 </defs>
 <g id="Layer_x0020_1">
  <metadata id="CorelCorpID_0Corel-Layer"/>
  <path class="fil0" d="M108.26 57.78l22.69 22.69c2.93,2.93 2.93,7.68 0,10.61 -2.93,2.93 -7.68,2.93 -10.6,0l-12.85 -12.85 0 59.9c0,4.15 -3.36,7.5 -7.5,7.5 -4.14,0 -7.5,-3.35 -7.5,-7.5l0 -59.9 -12.84 12.85c-2.93,2.93 -7.68,2.93 -10.61,0 -2.93,-2.93 -2.93,-7.68 0,-10.61l22.69 -22.69c2.28,-2.27 5.27,-3.41 8.26,-3.41 2.97,0 5.98,1.14 8.26,3.41zm-83.26 94.72l0 -105c0,-12.36 10.14,-22.5 22.5,-22.5l105 0c12.36,0 22.5,10.14 22.5,22.5l0 105c0,12.36 -10.14,22.5 -22.5,22.5l-105 0c-12.36,0 -22.5,-10.14 -22.5,-22.5zm15 -105l0 105c0,4.16 3.34,7.5 7.5,7.5l105 0c4.16,0 7.5,-3.34 7.5,-7.5l0 -105c0,-4.16 -3.34,-7.5 -7.5,-7.5l-105 0c-4.16,0 -7.5,3.34 -7.5,7.5z"/>
 </g>
</svg>
