<?xml version="1.0" encoding="UTF-8"?>
<!DOCTYPE svg PUBLIC "-//W3C//DTD SVG 1.1//EN" "http://www.w3.org/Graphics/SVG/1.1/DTD/svg11.dtd">
<!-- Creator: CorelDRAW -->
<svg xmlns="http://www.w3.org/2000/svg" xml:space="preserve" width="200px" height="200px" version="1.1" style="shape-rendering:geometricPrecision; text-rendering:geometricPrecision; image-rendering:optimizeQuality; fill-rule:evenodd; clip-rule:evenodd"
viewBox="0 0 200 200"
 xmlns:xlink="http://www.w3.org/1999/xlink"
 xmlns:xodm="http://www.corel.com/coreldraw/odm/2003">
 <defs>
  <style type="text/css">
   <![CDATA[
    .fil0 {fill:#373435;fill-rule:nonzero}
   ]]>
  </style>
 </defs>
 <g id="Layer_x0020_1">
  <metadata id="CorelCorpID_0Corel-Layer"/>
  <path class="fil0" d="M142.22 108.26l-22.69 22.69c-2.93,2.93 -7.68,2.93 -10.61,0 -2.93,-2.93 -2.93,-7.68 0,-10.6l12.85 -12.85 -59.9 0c-4.15,0 -7.5,-3.36 -7.5,-7.5 0,-4.14 3.35,-7.5 7.5,-7.5l59.9 0 -12.85 -12.84c-2.93,-2.93 -2.93,-7.68 0,-10.61 2.93,-2.93 7.68,-2.93 10.61,0l22.69 22.69c2.27,2.28 3.41,5.27 3.41,8.26 0,2.97 -1.14,5.98 -3.41,8.26zm-94.72 -83.26l105 0c12.36,0 22.5,10.14 22.5,22.5l0 105c0,12.36 -10.14,22.5 -22.5,22.5l-105 0c-12.36,0 -22.5,-10.14 -22.5,-22.5l0 -105c0,-12.36 10.14,-22.5 22.5,-22.5zm105 15l-105 0c-4.16,0 -7.5,3.34 -7.5,7.5l0 105c0,4.16 3.34,7.5 7.5,7.5l105 0c4.16,0 7.5,-3.34 7.5,-7.5l0 -105c0,-4.16 -3.34,-7.5 -7.5,-7.5z"/>
 </g>
</svg>
