<?xml version="1.0" encoding="UTF-8"?>
<!DOCTYPE svg PUBLIC "-//W3C//DTD SVG 1.1//EN" "http://www.w3.org/Graphics/SVG/1.1/DTD/svg11.dtd">
<!-- Creator: CorelDRAW -->
<svg xmlns="http://www.w3.org/2000/svg" xml:space="preserve" width="206px" height="206px" version="1.1" style="shape-rendering:geometricPrecision; text-rendering:geometricPrecision; image-rendering:optimizeQuality; fill-rule:evenodd; clip-rule:evenodd"
viewBox="0 0 206 206"
 xmlns:xlink="http://www.w3.org/1999/xlink"
 xmlns:xodm="http://www.corel.com/coreldraw/odm/2003">
 <defs>
  <style type="text/css">
   <![CDATA[
    .fil0 {fill:#373435;fill-rule:nonzero}
   ]]>
  </style>
 </defs>
 <g id="Layer_x0020_1">
  <metadata id="CorelCorpID_0Corel-Layer"/>
  <path class="fil0" d="M110.34 78.44c2.76,0 5,2.23 5,5 0,2.76 -2.24,5 -5,5l-67.34 0c-2.77,0 -5,2.22 -5,5l0 30c0,2.77 2.23,5 5,5l120 0c2.76,0 5,-2.24 5,-5 0,-2.76 2.24,-5 5,-5 2.76,0 5,2.24 5,5 0,8.25 -6.75,15 -15,15l-120 0c-8.24,0 -15,-6.76 -15,-15l0 -30c0,-8.24 6.76,-15 15,-15l67.34 0zm9.01 42.01l3.07 -14.19c0.16,-0.73 0.52,-1.37 1.02,-1.86l34.35 -34.34c3.69,-3.42 9.51,-3.31 13.07,0.25 0.32,0.34 3.09,3.13 3.13,3.13 3.67,3.67 3.67,9.65 0,13.32 0,0.04 -24.96,24.97 -34.09,34.11 -0.56,0.56 -1.25,0.9 -1.98,1.03l-14.13 3.06c-2.02,0.44 -4.02,-0.85 -4.45,-2.87 -0.12,-0.56 -0.11,-1.12 0.01,-1.64zm10.16 -11.53l-1.62 7.49 7.49 -1.62 24.52 -24.53 -5.86 -5.86 -24.53 24.52zm33.32 -33.31l-3.49 3.49 5.86 5.86 3.49 -3.49c0.76,-0.74 0.75,-1.97 0,-2.72l-3.14 -3.14c-0.73,-0.73 -2,-0.76 -2.72,0zm-97.47 43.76l5.47 0 -7.44 -21.87 -6.38 0 -7.43 21.87 5.46 0 1.1 -3.43 8.12 0 1.1 3.43zm-7.72 -8.12l2.56 -8.03 2.56 8.03 -5.12 0zm24.25 -7.94c-2.1,0 -3.63,0.72 -4.66,1.91l0 -7.72 -4.69 0 0 21.87 4.69 0 0 -1.47c1.03,1.19 2.56,1.91 4.66,1.91 4.09,0 7.47,-3.59 7.47,-8.25 0,-4.66 -3.38,-8.25 -7.47,-8.25zm-0.94 12.06c-2.16,0 -3.72,-1.46 -3.72,-3.81 0,-2.34 1.56,-3.81 3.72,-3.81 2.16,0 3.72,1.47 3.72,3.81 0,2.35 -1.56,3.81 -3.72,3.81zm18.56 4.44c3.06,0 5.72,-1.59 7.07,-4.03l-4.1 -2.34c-0.5,1.09 -1.66,1.75 -3.03,1.75 -2.03,0 -3.53,-1.47 -3.53,-3.63 0,-2.15 1.5,-3.62 3.53,-3.62 1.37,0 2.5,0.65 3.03,1.75l4.1 -2.38c-1.35,-2.4 -4.04,-4 -7.07,-4 -4.75,0 -8.28,3.59 -8.28,8.25 0,4.66 3.53,8.25 8.28,8.25z"/>
 </g>
</svg>
