<?xml version="1.0" encoding="UTF-8"?>
<!DOCTYPE svg PUBLIC "-//W3C//DTD SVG 1.1//EN" "http://www.w3.org/Graphics/SVG/1.1/DTD/svg11.dtd">
<!-- Creator: CorelDRAW -->
<svg xmlns="http://www.w3.org/2000/svg" xml:space="preserve" width="206px" height="206px" version="1.1" style="shape-rendering:geometricPrecision; text-rendering:geometricPrecision; image-rendering:optimizeQuality; fill-rule:evenodd; clip-rule:evenodd"
viewBox="0 0 206 206"
 xmlns:xlink="http://www.w3.org/1999/xlink"
 xmlns:xodm="http://www.corel.com/coreldraw/odm/2003">
 <defs>
  <style type="text/css">
   <![CDATA[
    .fil0 {fill:#373435;fill-rule:nonzero}
   ]]>
  </style>
 </defs>
 <g id="Layer_x0020_1">
  <metadata id="CorelCorpID_0Corel-Layer"/>
  <path class="fil0" d="M115.34 83.44c0,2.76 -2.24,5 -5,5l-67.34 0c-2.77,0 -5,2.23 -5,5l0 30c0,2.77 2.23,5 5,5l120 0c2.76,0 5,-2.24 5,-5 0,-2.76 2.24,-5 5,-5 2.76,0 5,2.24 5,5 0,8.25 -6.75,15 -15,15l-120 0c-8.24,0 -15,-6.76 -15,-15l0 -30c0,-8.24 6.76,-15 15,-15l67.34 0c2.76,0 5,2.24 5,5zm4.01 37.01l3.07 -14.19c0.16,-0.73 0.52,-1.37 1.02,-1.86l34.08 -34.09c3.89,-3.53 9.53,-3.81 13.34,0 0.32,0.35 3.09,3.14 3.13,3.14 3.67,3.66 3.67,9.65 0,13.31 0,0.04 -24.96,24.98 -34.09,34.11 -0.56,0.56 -1.25,0.91 -1.98,1.04l-14.13 3.06c-2.71,0.58 -5.06,-1.88 -4.44,-4.52zm45.85 -35.48l-5.86 -5.87 -5.3 5.31 5.86 5.86 5.3 -5.3zm-50.68 13.47l0 20c0,2.76 -2.24,5 -5,5l-61.52 0c-2.76,0 -5,-2.24 -5,-5l0 -20c0,-2.76 2.24,-5 5,-5l61.52 0c2.76,0 5,2.24 5,5zm-49.16 20.94l5.47 0 -7.44 -21.88 -6.38 0 -7.43 21.88 5.46 0 1.1 -3.44 8.12 0 1.1 3.44zm-7.72 -8.13l2.56 -8.03 2.56 8.03 -5.12 0zm24.25 -7.93c-2.1,0 -3.63,0.71 -4.66,1.9l0 -7.72 -4.69 0 0 21.88 4.69 0 0 -1.47c1.03,1.19 2.56,1.91 4.66,1.91 4.09,0 7.47,-3.6 7.47,-8.25 0,-4.66 -3.38,-8.25 -7.47,-8.25zm-0.94 12.06c-2.16,0 -3.72,-1.47 -3.72,-3.81 0,-2.35 1.56,-3.82 3.72,-3.82 2.16,0 3.72,1.47 3.72,3.82 0,2.34 -1.56,3.81 -3.72,3.81zm18.56 4.44c3.06,0 5.72,-1.6 7.07,-4.04l-4.1 -2.34c-0.5,1.09 -1.66,1.75 -3.03,1.75 -2.03,0 -3.53,-1.47 -3.53,-3.62 0,-2.16 1.5,-3.63 3.53,-3.63 1.37,0 2.5,0.66 3.03,1.75l4.1 -2.37c-1.35,-2.41 -4.04,-4 -7.07,-4 -4.75,0 -8.28,3.59 -8.28,8.25 0,4.65 3.53,8.25 8.28,8.25z"/>
 </g>
</svg>
