<?xml version="1.0" encoding="UTF-8"?>
<!DOCTYPE svg PUBLIC "-//W3C//DTD SVG 1.1//EN" "http://www.w3.org/Graphics/SVG/1.1/DTD/svg11.dtd">
<!-- Creator: CorelDRAW -->
<svg xmlns="http://www.w3.org/2000/svg" xml:space="preserve" width="206px" height="206px" version="1.1" style="shape-rendering:geometricPrecision; text-rendering:geometricPrecision; image-rendering:optimizeQuality; fill-rule:evenodd; clip-rule:evenodd"
viewBox="0 0 206 206"
 xmlns:xlink="http://www.w3.org/1999/xlink"
 xmlns:xodm="http://www.corel.com/coreldraw/odm/2003">
 <defs>
  <style type="text/css">
   <![CDATA[
    .fil0 {fill:#373435;fill-rule:nonzero}
   ]]>
  </style>
 </defs>
 <g id="Layer_x0020_1">
  <metadata id="CorelCorpID_0Corel-Layer"/>
  <path class="fil0" d="M49.37 168c4.82,-20.62 17.3,-39.95 36.01,-47.97 -19.77,-16.36 -8.4,-48.98 17.62,-48.98 25.33,0 37.91,32.14 17.61,48.97 18.72,8.03 31.2,27.35 36.02,47.98 4.04,0 11.37,1.21 11.37,-5l0 -120c0,-2.77 -2.23,-5 -5,-5l-120 0c-2.77,0 -5,2.23 -5,5l0 120c0,6.21 7.33,5 11.37,5zm25.78 -28.77c-7.02,7.31 -12.46,17.26 -15.51,28.77l86.72 0c-10.08,-38.04 -45.37,-55.66 -71.21,-28.77zm40.34 -53.01c-11.03,-11.05 -30.15,-3.25 -30.15,12.49 0,14.35 17.66,22.51 28.51,13.67 7.36,-5.98 10.48,-17.32 1.64,-26.16zm-72.49 -58.22l120 0c8.24,0 15,6.75 15,15l0 120c0,8.24 -6.76,15 -15,15l-120 0c-8.25,0 -15,-6.76 -15,-15l0 -120c0,-8.25 6.75,-15 15,-15z"/>
 </g>
</svg>
