<?xml version="1.0" encoding="UTF-8"?>
<!DOCTYPE svg PUBLIC "-//W3C//DTD SVG 1.1//EN" "http://www.w3.org/Graphics/SVG/1.1/DTD/svg11.dtd">
<!-- Creator: CorelDRAW -->
<svg xmlns="http://www.w3.org/2000/svg" xml:space="preserve" width="206px" height="206px" version="1.1" style="shape-rendering:geometricPrecision; text-rendering:geometricPrecision; image-rendering:optimizeQuality; fill-rule:evenodd; clip-rule:evenodd"
viewBox="0 0 206 206"
 xmlns:xlink="http://www.w3.org/1999/xlink"
 xmlns:xodm="http://www.corel.com/coreldraw/odm/2003">
 <defs>
  <style type="text/css">
   <![CDATA[
    .fil0 {fill:#373435;fill-rule:nonzero}
   ]]>
  </style>
 </defs>
 <g id="Layer_x0020_1">
  <metadata id="CorelCorpID_0Corel-Layer"/>
  <path class="fil0" d="M43 28l120 0c8.24,0 15,6.76 15,15l0 120c0,8.24 -6.76,15 -15,15l-120 0c-8.24,0 -15,-6.76 -15,-15l0 -120c0,-8.24 6.76,-15 15,-15zm11.5 140l97 0c-6.72,-27.08 -25.9,-46.63 -48.5,-46.63 -22.6,0 -41.78,19.55 -48.5,46.63zm48.5 -91.95c-12.52,0 -22.66,10.15 -22.66,22.66 0,12.52 10.14,22.66 22.66,22.66 12.52,0 22.66,-10.14 22.66,-22.66 0,-12.51 -10.14,-22.66 -22.66,-22.66z"/>
 </g>
</svg>
