<?xml version="1.0" encoding="UTF-8"?>
<!DOCTYPE svg PUBLIC "-//W3C//DTD SVG 1.1//EN" "http://www.w3.org/Graphics/SVG/1.1/DTD/svg11.dtd">
<!-- Creator: CorelDRAW -->
<svg xmlns="http://www.w3.org/2000/svg" xml:space="preserve" width="206px" height="206px" version="1.1" style="shape-rendering:geometricPrecision; text-rendering:geometricPrecision; image-rendering:optimizeQuality; fill-rule:evenodd; clip-rule:evenodd"
viewBox="0 0 206 206"
 xmlns:xlink="http://www.w3.org/1999/xlink"
 xmlns:xodm="http://www.corel.com/coreldraw/odm/2003">
 <defs>
  <style type="text/css">
   <![CDATA[
    .fil0 {fill:#373435;fill-rule:nonzero}
   ]]>
  </style>
 </defs>
 <g id="Layer_x0020_1">
  <metadata id="CorelCorpID_0Corel-Layer"/>
  <path class="fil0" d="M49.68 168.31l106.95 -0.31c-4.82,-20.63 -17.3,-39.95 -36.02,-47.98 20.17,-16.72 7.85,-48.97 -17.61,-48.97 -25.87,0 -37.5,32.53 -17.62,48.98 -18.71,8.02 -31.19,27.35 -35.7,48.28zm-6.68 -140.31l120 0c8.24,0 15,6.75 15,15l0 120c0,8.24 -6.76,15 -15,15l-120 0c-8.25,0 -15,-6.76 -15,-15l0 -120c0,-8.24 6.75,-15 15,-15z"/>
 </g>
</svg>
