<?xml version="1.0" encoding="UTF-8"?>
<!DOCTYPE svg PUBLIC "-//W3C//DTD SVG 1.1//EN" "http://www.w3.org/Graphics/SVG/1.1/DTD/svg11.dtd">
<!-- Creator: CorelDRAW -->
<svg xmlns="http://www.w3.org/2000/svg" xml:space="preserve" width="206px" height="206px" version="1.1" style="shape-rendering:geometricPrecision; text-rendering:geometricPrecision; image-rendering:optimizeQuality; fill-rule:evenodd; clip-rule:evenodd"
viewBox="0 0 206 206"
 xmlns:xlink="http://www.w3.org/1999/xlink"
 xmlns:xodm="http://www.corel.com/coreldraw/odm/2003">
 <defs>
  <style type="text/css">
   <![CDATA[
    .fil0 {fill:#373435;fill-rule:nonzero}
   ]]>
  </style>
 </defs>
 <g id="Layer_x0020_1">
  <metadata id="CorelCorpID_0Corel-Layer"/>
  <path class="fil0" d="M103 56.59c-15.27,0 -27.66,12.39 -27.66,27.66 0,8.34 3.69,16.05 10.05,21.32 -5.69,2.44 -10.98,6.03 -15.7,10.56 -7.41,7.12 -13.42,16.58 -17.4,27.54 25.74,32.17 75.28,32.63 101.42,0 -3.98,-10.96 -9.99,-20.43 -17.4,-27.54 -4.72,-4.53 -10.01,-8.12 -15.7,-10.56 6.34,-5.25 10.05,-13.02 10.05,-21.32 0,-15.27 -12.39,-27.66 -27.66,-27.66zm0 -28.59c41.42,0 75,33.58 75,75 0,41.42 -33.58,75 -75,75 -41.42,0 -75,-33.58 -75,-75 0,-41.42 33.58,-75 75,-75z"/>
 </g>
</svg>
