<?xml version="1.0" encoding="UTF-8"?>
<!DOCTYPE svg PUBLIC "-//W3C//DTD SVG 1.1//EN" "http://www.w3.org/Graphics/SVG/1.1/DTD/svg11.dtd">
<!-- Creator: CorelDRAW -->
<svg xmlns="http://www.w3.org/2000/svg" xml:space="preserve" width="206px" height="206px" version="1.1" style="shape-rendering:geometricPrecision; text-rendering:geometricPrecision; image-rendering:optimizeQuality; fill-rule:evenodd; clip-rule:evenodd"
viewBox="0 0 206 206"
 xmlns:xlink="http://www.w3.org/1999/xlink"
 xmlns:xodm="http://www.corel.com/coreldraw/odm/2003">
 <defs>
  <style type="text/css">
   <![CDATA[
    .fil0 {fill:#373435;fill-rule:nonzero}
   ]]>
  </style>
 </defs>
 <g id="Layer_x0020_1">
  <metadata id="CorelCorpID_0Corel-Layer"/>
  <path class="fil0" d="M103 28c67.3,0 99.63,81.44 53.03,128.03 -13.57,13.57 -32.32,21.97 -53.03,21.97 -20.71,0 -39.46,-8.4 -53.03,-21.97 -46.6,-46.59 -14.27,-128.03 53.03,-128.03zm46.92 119.98c39.07,-40.73 10.77,-109.98 -46.92,-109.98 -57.69,0 -85.99,69.25 -46.92,109.98 7.83,-24.16 25.89,-41.07 46.92,-41.07 21.03,0 39.09,16.91 46.92,41.07zm-46.92 -86.39c12.51,0 22.66,10.15 22.66,22.66 0,12.52 -10.15,22.66 -22.66,22.66 -12.51,0 -22.66,-10.14 -22.66,-22.66 0,-12.51 10.15,-22.66 22.66,-22.66z"/>
 </g>
</svg>
