<?xml version="1.0" encoding="UTF-8"?>
<!DOCTYPE svg PUBLIC "-//W3C//DTD SVG 1.1//EN" "http://www.w3.org/Graphics/SVG/1.1/DTD/svg11.dtd">
<!-- Creator: CorelDRAW -->
<svg xmlns="http://www.w3.org/2000/svg" xml:space="preserve" width="206px" height="206px" version="1.1" style="shape-rendering:geometricPrecision; text-rendering:geometricPrecision; image-rendering:optimizeQuality; fill-rule:evenodd; clip-rule:evenodd"
viewBox="0 0 206 206"
 xmlns:xlink="http://www.w3.org/1999/xlink"
 xmlns:xodm="http://www.corel.com/coreldraw/odm/2003">
 <defs>
  <style type="text/css">
   <![CDATA[
    .fil0 {fill:#373435;fill-rule:nonzero}
   ]]>
  </style>
 </defs>
 <g id="Layer_x0020_1">
  <metadata id="CorelCorpID_0Corel-Layer"/>
  <path class="fil0" d="M103 28c41.42,0 75,33.58 75,75 0,41.42 -33.58,75 -75,75 -41.42,0 -75,-33.58 -75,-75 0,-41.42 33.58,-75 75,-75zm0 10c-35.9,0 -65,29.1 -65,65 0,15.39 5.35,29.53 14.29,40.67 3.98,-10.96 9.99,-20.42 17.4,-27.54 4.72,-4.53 10.01,-8.12 15.7,-10.56 -6.36,-5.27 -10.05,-12.98 -10.05,-21.32 0,-15.27 12.39,-27.66 27.66,-27.66 15.27,0 27.66,12.39 27.66,27.66 0,8.3 -3.71,16.07 -10.05,21.32 5.69,2.44 10.98,6.03 15.7,10.56 7.41,7.11 13.42,16.58 17.4,27.54 8.94,-11.14 14.29,-25.28 14.29,-40.67 0,-35.9 -29.1,-65 -65,-65zm0 130c16.43,0 31.44,-6.1 42.89,-16.16 -3.35,-11.56 -9.13,-21.45 -16.49,-28.52 -7.26,-6.97 -16.3,-11.41 -26.49,-11.41 -9.77,0.03 -18.86,4.26 -26.31,11.41 -7.36,7.07 -13.14,16.96 -16.49,28.52 11.45,10.06 26.46,16.16 42.89,16.16zm0.09 -66.09c9.74,-0.05 17.57,-7.92 17.57,-17.66 0,-9.75 -7.9,-17.66 -17.66,-17.66 -9.76,0 -17.66,7.91 -17.66,17.66 0,9.85 7.93,17.66 17.75,17.66z"/>
 </g>
</svg>
