<?xml version="1.0" encoding="UTF-8"?>
<!DOCTYPE svg PUBLIC "-//W3C//DTD SVG 1.1//EN" "http://www.w3.org/Graphics/SVG/1.1/DTD/svg11.dtd">
<!-- Creator: CorelDRAW -->
<svg xmlns="http://www.w3.org/2000/svg" xml:space="preserve" width="200px" height="200px" version="1.1" style="shape-rendering:geometricPrecision; text-rendering:geometricPrecision; image-rendering:optimizeQuality; fill-rule:evenodd; clip-rule:evenodd"
viewBox="0 0 200 200"
 xmlns:xlink="http://www.w3.org/1999/xlink"
 xmlns:xodm="http://www.corel.com/coreldraw/odm/2003">
 <defs>
  <style type="text/css">
   <![CDATA[
    .fil0 {fill:#373435;fill-rule:nonzero}
   ]]>
  </style>
 </defs>
 <g id="Layer_x0020_1">
  <metadata id="CorelCorpID_0Corel-Layer"/>
  <path class="fil0" d="M66.03 101.46c-1.95,1.95 -5.12,1.95 -7.07,0 -1.95,-1.95 -1.95,-5.12 0,-7.07l30.43 -30.43 0.34 -0.31c2.88,-2.72 6.58,-4.08 10.27,-4.08 3.84,0 7.68,1.47 10.6,4.39l30.43 30.43c1.96,1.95 1.96,5.12 0,7.07 -1.95,1.95 -5.11,1.95 -7.07,0l-30.43 -30.43c-0.97,-0.97 -2.25,-1.46 -3.53,-1.46 -1.21,0 -2.41,0.43 -3.36,1.27l-30.61 30.62zm0 37.5c-1.95,1.95 -5.12,1.95 -7.07,0 -1.95,-1.95 -1.95,-5.12 0,-7.07l30.43 -30.43 0.34 -0.31c2.88,-2.71 6.58,-4.07 10.27,-4.07 3.84,0 7.68,1.46 10.6,4.38l30.43 30.43c1.96,1.95 1.96,5.12 0,7.07 -1.95,1.95 -5.11,1.95 -7.07,0l-30.43 -30.43c-0.97,-0.97 -2.25,-1.46 -3.53,-1.46 -1.21,0 -2.41,0.43 -3.36,1.27l-30.61 30.62z"/>
 </g>
</svg>
