<?xml version="1.0" encoding="UTF-8"?>
<!DOCTYPE svg PUBLIC "-//W3C//DTD SVG 1.1//EN" "http://www.w3.org/Graphics/SVG/1.1/DTD/svg11.dtd">
<!-- Creator: CorelDRAW -->
<svg xmlns="http://www.w3.org/2000/svg" xml:space="preserve" width="200px" height="200px" version="1.1" style="shape-rendering:geometricPrecision; text-rendering:geometricPrecision; image-rendering:optimizeQuality; fill-rule:evenodd; clip-rule:evenodd"
viewBox="0 0 200 200"
 xmlns:xlink="http://www.w3.org/1999/xlink"
 xmlns:xodm="http://www.corel.com/coreldraw/odm/2003">
 <defs>
  <style type="text/css">
   <![CDATA[
    .fil0 {fill:#373435;fill-rule:nonzero}
   ]]>
  </style>
 </defs>
 <g id="Layer_x0020_1">
  <metadata id="CorelCorpID_0Corel-Layer"/>
  <path class="fil0" d="M120.21 133.97c1.95,1.95 1.95,5.11 0,7.07 -1.95,1.95 -5.12,1.95 -7.07,0l-30.43 -30.43c-2.92,-2.93 -4.38,-6.77 -4.38,-10.61 0,-3.83 1.46,-7.66 4.38,-10.59l0 -0.02 30.43 -30.43c1.95,-1.95 5.12,-1.95 7.07,0 1.95,1.96 1.95,5.12 0,7.07l-30.43 30.43 -0.01 0c-0.96,0.96 -1.45,2.25 -1.45,3.54 0,1.28 0.49,2.57 1.46,3.53l30.43 30.44z"/>
 </g>
</svg>
