<?xml version="1.0" encoding="UTF-8"?>
<!DOCTYPE svg PUBLIC "-//W3C//DTD SVG 1.1//EN" "http://www.w3.org/Graphics/SVG/1.1/DTD/svg11.dtd">
<!-- Creator: CorelDRAW -->
<svg xmlns="http://www.w3.org/2000/svg" xml:space="preserve" width="200px" height="200px" version="1.1" style="shape-rendering:geometricPrecision; text-rendering:geometricPrecision; image-rendering:optimizeQuality; fill-rule:evenodd; clip-rule:evenodd"
viewBox="0 0 200 200"
 xmlns:xlink="http://www.w3.org/1999/xlink"
 xmlns:xodm="http://www.corel.com/coreldraw/odm/2003">
 <defs>
  <style type="text/css">
   <![CDATA[
    .fil0 {fill:#373435;fill-rule:nonzero}
   ]]>
  </style>
 </defs>
 <g id="Layer_x0020_1">
  <metadata id="CorelCorpID_0Corel-Layer"/>
  <path class="fil0" d="M66.03 120.21c-1.95,1.95 -5.11,1.95 -7.07,0 -1.95,-1.95 -1.95,-5.12 0,-7.07l30.43 -30.43c2.93,-2.92 6.77,-4.38 10.61,-4.38 3.83,0 7.66,1.46 10.59,4.38l0.02 0 30.43 30.43c1.95,1.95 1.95,5.12 0,7.07 -1.96,1.95 -5.12,1.95 -7.07,0l-30.43 -30.43 0 -0.01c-0.96,-0.96 -2.25,-1.45 -3.54,-1.45 -1.28,0 -2.57,0.49 -3.53,1.46l-30.44 30.43z"/>
 </g>
</svg>
